<svg width="75" height="61" viewBox="0 0 75 61" fill="none" xmlns="http://www.w3.org/2000/svg">
<path d="M67.5 4.25H26.25C24.1406 4.25 22.5 6.00781 22.5 8V12.2188C21.2109 11.9844 20.0391 11.75 18.75 11.75V8C18.75 3.89844 22.0312 0.5 26.25 0.5H67.5C71.6016 0.5 75 3.89844 75 8V41.75C75 45.9688 71.6016 49.25 67.5 49.25H65.625H46.875H45H39.375C38.7891 47.9609 38.0859 46.6719 37.1484 45.5H45V39.875C45 36.8281 47.4609 34.25 50.625 34.25H61.875C64.9219 34.25 67.5 36.8281 67.5 39.875V45.5C69.4922 45.5 71.25 43.8594 71.25 41.75V8C71.25 6.00781 69.4922 4.25 67.5 4.25ZM63.75 45.5V39.875C63.75 38.9375 62.8125 38 61.875 38H50.625C49.5703 38 48.75 38.9375 48.75 39.875V45.5H63.75ZM26.25 26.75C26.25 24.1719 24.7266 21.7109 22.5 20.3047C20.1562 19.0156 17.2266 19.0156 15 20.3047C12.6562 21.7109 11.25 24.1719 11.25 26.75C11.25 29.4453 12.6562 31.9062 15 33.3125C17.2266 34.6016 20.1562 34.6016 22.5 33.3125C24.7266 31.9062 26.25 29.4453 26.25 26.75ZM7.5 26.75C7.5 22.7656 9.60938 19.1328 13.125 17.0234C16.5234 15.0312 20.8594 15.0312 24.375 17.0234C27.7734 19.1328 30 22.7656 30 26.75C30 30.8516 27.7734 34.4844 24.375 36.5938C20.8594 38.5859 16.5234 38.5859 13.125 36.5938C9.60938 34.4844 7.5 30.8516 7.5 26.75ZM3.75 56.75H33.6328C33.3984 50.5391 28.125 45.5 21.7969 45.5H15.5859C9.25781 45.5 3.98438 50.5391 3.75 56.75ZM0 57.4531C0 48.7812 6.91406 41.75 15.5859 41.75H21.7969C30.4688 41.75 37.5 48.7812 37.5 57.4531C37.5 59.0938 36.0938 60.5 34.3359 60.5H3.04688C1.28906 60.5 0 59.2109 0 57.4531Z" fill="#1E3A5F"/>
</svg>
