<svg width="65" height="61" viewBox="0 0 65 61" fill="none" xmlns="http://www.w3.org/2000/svg">
<path d="M56.8828 24.875C55.9453 13.9766 47.2734 5.30469 36.375 4.36719V24.875H56.8828ZM34.5 28.625C33.4453 28.625 32.625 27.8047 32.625 26.75V2.375C32.625 1.4375 33.3281 0.5 34.2656 0.5H34.5C48.9141 0.5 60.75 12.3359 60.75 26.75V26.9844C60.6328 27.9219 59.8125 28.625 58.875 28.625H34.5ZM24.3047 36.9453C23.6016 36.2422 23.25 35.3047 23.25 34.25V8.70312C12.4688 11.2812 4.5 20.8906 4.5 32.375C4.5 45.8516 15.3984 56.75 28.875 56.75C33.2109 56.75 37.3125 55.5781 40.9453 53.5859L24.3047 36.9453ZM25.0078 4.60156C26.0625 4.36719 27 5.30469 27 6.35938V34.25L45.2812 52.6484C46.1016 53.4688 45.9844 54.7578 45.1641 55.3438C40.4766 58.625 34.8516 60.5 28.875 60.5C13.2891 60.5 0.75 47.9609 0.75 32.375C0.75 18.1953 11.2969 6.47656 25.0078 4.60156ZM54.3047 48.8984C57.1172 45.8516 59.1094 42.1016 60.0469 38H43.5234L54.3047 48.8984ZM64.1484 36.2422V36.3594C63.3281 42.8047 60.1641 48.6641 55.4766 53C54.7734 53.5859 53.7188 53.5859 53.0156 52.8828L37.6641 37.5312C36.4922 36.3594 37.3125 34.25 38.9531 34.25H62.3906C63.4453 34.25 64.3828 35.1875 64.1484 36.2422Z" fill="#1E3A5F"/>
</svg>
