<svg width="60" height="53" viewBox="0 0 60 53" fill="none" xmlns="http://www.w3.org/2000/svg">
<path d="M3.75 2.125V43.375C3.75 46.5391 6.21094 49 9.375 49H58.125C59.0625 49 60 49.9375 60 50.875C60 51.9297 59.0625 52.75 58.125 52.75H9.375C4.10156 52.75 0 48.6484 0 43.375V2.125C0 1.1875 0.820312 0.25 1.875 0.25C2.8125 0.25 3.75 1.1875 3.75 2.125ZM55.6641 14.7812L38.7891 31.6562C38.0859 32.3594 36.7969 32.3594 36.0938 31.6562L26.25 21.6953L14.4141 33.5312C13.7109 34.2344 12.4219 34.2344 11.7188 33.5312C11.0156 32.8281 11.0156 31.5391 11.7188 30.8359L24.8438 17.7109C25.5469 17.0078 26.8359 17.0078 27.5391 17.7109L37.5 27.6719L52.9688 12.0859C53.6719 11.3828 54.9609 11.3828 55.6641 12.0859C56.3672 12.7891 56.3672 14.0781 55.6641 14.7812Z" fill="#1E3A5F"/>
</svg>
