<svg width="45" height="61" viewBox="0 0 45 61" fill="none" xmlns="http://www.w3.org/2000/svg">
<path d="M16.9922 8.46875C16.7578 9.40625 16.0547 9.875 15.2344 9.875H13.125C12.0703 9.875 11.25 10.8125 11.25 11.75V15.5H22.5H33.75V11.75C33.75 10.8125 32.8125 9.875 31.875 9.875H29.7656C28.8281 9.875 28.125 9.40625 27.8906 8.46875C27.3047 6.125 25.0781 4.25 22.5 4.25C19.8047 4.25 17.5781 6.125 16.9922 8.46875ZM22.5 0.5C26.25 0.5 29.6484 2.84375 31.0547 6.125H31.875C34.2188 6.125 36.3281 7.76562 37.1484 9.875H37.5C41.6016 9.875 45 13.2734 45 17.375V53C45 57.2188 41.6016 60.5 37.5 60.5H7.5C3.28125 60.5 0 57.2188 0 53V17.375C0 13.2734 3.28125 9.875 7.5 9.875H7.73438C8.55469 7.76562 10.6641 6.125 13.125 6.125H13.8281C15.3516 2.84375 18.6328 0.5 22.5 0.5ZM37.5 13.625V15.5C37.5 17.6094 35.7422 19.25 33.75 19.25H22.5H11.25C9.14062 19.25 7.5 17.6094 7.5 15.5V13.625C5.39062 13.625 3.75 15.3828 3.75 17.375V53C3.75 55.1094 5.39062 56.75 7.5 56.75H37.5C39.4922 56.75 41.25 55.1094 41.25 53V17.375C41.25 15.3828 39.4922 13.625 37.5 13.625ZM24.375 9.875C24.375 10.9297 23.4375 11.75 22.5 11.75C21.4453 11.75 20.625 10.9297 20.625 9.875C20.625 8.9375 21.4453 8 22.5 8C23.4375 8 24.375 8.9375 24.375 9.875ZM15.9375 32.375C15.9375 34.0156 14.6484 35.1875 13.125 35.1875C11.4844 35.1875 10.3125 34.0156 10.3125 32.375C10.3125 30.8516 11.4844 29.5625 13.125 29.5625C14.6484 29.5625 15.9375 30.8516 15.9375 32.375ZM20.625 30.5H31.875C32.8125 30.5 33.75 31.4375 33.75 32.375C33.75 33.4297 32.8125 34.25 31.875 34.25H20.625C19.5703 34.25 18.75 33.4297 18.75 32.375C18.75 31.4375 19.5703 30.5 20.625 30.5ZM20.625 41.75H31.875C32.8125 41.75 33.75 42.6875 33.75 43.625C33.75 44.6797 32.8125 45.5 31.875 45.5H20.625C19.5703 45.5 18.75 44.6797 18.75 43.625C18.75 42.6875 19.5703 41.75 20.625 41.75ZM13.125 46.4375C11.4844 46.4375 10.3125 45.2656 10.3125 43.625C10.3125 42.1016 11.4844 40.8125 13.125 40.8125C14.6484 40.8125 15.9375 42.1016 15.9375 43.625C15.9375 45.2656 14.6484 46.4375 13.125 46.4375Z" fill="white"/>
</svg>
