<svg width="76" height="60" viewBox="0 0 76 60" fill="none" xmlns="http://www.w3.org/2000/svg">
<path d="M18.1094 4.30469L17.2891 7.23438C17.0547 7.82031 16.5859 8.40625 16 8.52344C14.3594 9.10938 12.7188 10.0469 11.4297 11.2188C10.9609 11.5703 10.375 11.8047 9.67188 11.5703L6.74219 10.8672C6.50781 11.2188 6.27344 11.5703 6.03906 11.9219L5.80469 12.5078C5.57031 12.8594 5.33594 13.2109 5.21875 13.6797L7.32812 15.7891C7.79688 16.2578 7.91406 16.9609 7.79688 17.5469C7.5625 18.3672 7.5625 19.3047 7.5625 20.125C7.5625 21.0625 7.5625 22 7.79688 22.8203C7.91406 23.4062 7.79688 24.1094 7.32812 24.5781L5.10156 26.6875C5.33594 27.1562 5.57031 27.5078 5.6875 27.8594L6.03906 28.4453C6.27344 28.7969 6.50781 29.1484 6.74219 29.5L9.67188 28.6797C10.375 28.5625 10.9609 28.6797 11.4297 29.1484C12.7188 30.3203 14.3594 31.2578 16 31.8438C16.7031 31.9609 17.1719 32.4297 17.2891 33.1328L18.1094 36.0625C18.5781 36.0625 19.1641 36.0625 19.75 36.0625C20.2188 36.0625 20.8047 36.0625 21.2734 36.0625L22.0938 33.1328C22.3281 32.4297 22.7969 31.9609 23.3828 31.8438C25.1406 31.2578 26.6641 30.3203 27.9531 29.1484C28.4219 28.6797 29.125 28.5625 29.7109 28.6797L32.6406 29.5C32.875 29.1484 33.1094 28.7969 33.3438 28.4453L33.6953 27.8594C33.9297 27.5078 34.0469 27.1562 34.2812 26.6875L32.0547 24.5781C31.7031 24.1094 31.4688 23.4062 31.5859 22.8203C31.8203 22 31.9375 21.0625 31.9375 20.125C31.9375 19.3047 31.8203 18.3672 31.5859 17.5469C31.4688 16.9609 31.7031 16.2578 32.0547 15.7891L34.2812 13.6797C34.0469 13.2109 33.9297 12.8594 33.6953 12.5078L33.3438 11.9219C33.1094 11.5703 32.875 11.2188 32.6406 10.8672L29.7109 11.5703C29.0078 11.8047 28.4219 11.5703 27.9531 11.2188C26.6641 10.0469 25.0234 9.10938 23.3828 8.52344C22.7969 8.40625 22.3281 7.82031 22.0938 7.23438L21.2734 4.30469C20.8047 4.30469 20.2188 4.1875 19.6328 4.1875C19.1641 4.1875 18.5781 4.30469 18.1094 4.30469ZM16.2344 0.789062C17.4062 0.554688 18.5781 0.4375 19.75 0.4375C20.8047 0.4375 21.9766 0.554688 23.1484 0.789062C23.8516 0.90625 24.4375 1.49219 24.5547 2.07812L25.4922 5.35938C27.0156 5.94531 28.4219 6.76562 29.7109 7.70312L32.875 6.88281C33.5781 6.76562 34.2812 7 34.75 7.46875C35.4531 8.28906 36.0391 9.10938 36.625 10.0469L36.9766 10.6328C37.4453 11.5703 37.9141 12.5078 38.2656 13.4453C38.5 14.1484 38.2656 14.8516 37.7969 15.4375L35.4531 17.7812C35.5703 18.6016 35.6875 19.4219 35.6875 20.2422C35.6875 21.0625 35.5703 21.7656 35.4531 22.5859L37.7969 24.9297C38.2656 25.5156 38.5 26.2188 38.2656 26.9219C37.9141 27.8594 37.4453 28.7969 36.9766 29.7344L36.625 30.3203H36.5078C36.0391 31.2578 35.4531 32.0781 34.75 32.8984C34.2812 33.3672 33.5781 33.6016 32.875 33.4844L29.7109 32.6641C28.4219 33.6016 27.0156 34.4219 25.4922 35.0078L24.5547 38.1719C24.4375 38.875 23.8516 39.4609 23.1484 39.5781C21.9766 39.8125 20.8047 39.8125 19.75 39.8125C18.5781 39.8125 17.4062 39.8125 16.2344 39.5781C15.5312 39.4609 14.9453 38.875 14.8281 38.1719L13.8906 35.0078C12.3672 34.4219 10.9609 33.6016 9.67188 32.6641L6.50781 33.4844C5.80469 33.6016 5.10156 33.3672 4.63281 32.7812C3.92969 32.0781 3.34375 31.1406 2.75781 30.3203L2.52344 29.7344C1.9375 28.7969 1.58594 27.8594 1.23438 26.9219C1 26.2188 1.11719 25.5156 1.58594 24.9297L3.92969 22.5859C3.8125 21.7656 3.8125 20.9453 3.8125 20.125C3.8125 19.3047 3.8125 18.6016 3.92969 17.7812L1.58594 15.4375C1.11719 14.8516 0.882812 14.1484 1.23438 13.4453C1.58594 12.5078 1.9375 11.5703 2.52344 10.6328L2.75781 10.0469C3.34375 9.10938 3.92969 8.28906 4.63281 7.46875C5.10156 7 5.80469 6.76562 6.50781 6.88281L9.67188 7.70312C10.9609 6.76562 12.3672 5.94531 13.8906 5.35938L14.8281 2.07812C14.9453 1.375 15.5312 0.90625 16.2344 0.789062ZM13.1875 20.125C13.1875 17.7812 14.3594 15.6719 16.4688 14.5C18.4609 13.3281 20.9219 13.3281 23.0312 14.5C25.0234 15.6719 26.3125 17.7812 26.3125 20.125C26.3125 22.5859 25.0234 24.6953 23.0312 25.8672C20.9219 27.0391 18.4609 27.0391 16.4688 25.8672C14.3594 24.6953 13.1875 22.5859 13.1875 20.125ZM19.75 22.9375C21.2734 22.9375 22.5625 21.7656 22.5625 20.125C22.5625 18.6016 21.2734 17.3125 19.75 17.3125C18.1094 17.3125 16.9375 18.6016 16.9375 20.125C16.9375 21.7656 18.1094 22.9375 19.75 22.9375ZM39.4375 42.3906L42.3672 43.2109C43.0703 43.4453 43.5391 43.9141 43.6562 44.5C44.2422 46.1406 45.1797 47.7812 46.3516 49.0703C46.8203 49.5391 46.9375 50.125 46.8203 50.8281L46 53.7578C46.3516 53.9922 46.7031 54.2266 47.1719 54.4609L47.6406 54.8125C47.9922 54.9297 48.3438 55.1641 48.8125 55.3984L50.9219 53.1719C51.3906 52.7031 52.0938 52.5859 52.6797 52.7031C53.5 52.9375 54.4375 52.9375 55.2578 52.9375C56.1953 52.9375 57.1328 52.9375 57.9531 52.7031C58.5391 52.5859 59.2422 52.7031 59.7109 53.1719L61.8203 55.3984C62.2891 55.1641 62.6406 54.9297 62.9922 54.8125L63.4609 54.4609C63.9297 54.2266 64.2812 53.9922 64.6328 53.7578L63.9297 50.8281C63.6953 50.125 63.9297 49.5391 64.2812 49.0703C65.4531 47.7812 66.3906 46.1406 66.9766 44.5C67.0938 43.7969 67.6797 43.3281 68.2656 43.2109L71.1953 42.3906C71.1953 41.9219 71.3125 41.3359 71.3125 40.75C71.3125 40.2812 71.1953 39.6953 71.1953 39.2266L68.2656 38.4062C67.6797 38.1719 67.0938 37.7031 66.9766 37.1172C66.3906 35.3594 65.4531 33.8359 64.2812 32.5469C63.9297 32.0781 63.6953 31.375 63.9297 30.7891L64.6328 27.8594C64.2812 27.625 63.9297 27.3906 63.5781 27.1562L62.9922 26.8047C62.6406 26.5703 62.2891 26.4531 61.8203 26.2188L59.7109 28.4453C59.2422 28.7969 58.5391 29.0312 57.9531 28.9141C57.1328 28.6797 56.1953 28.5625 55.375 28.5625C54.4375 28.5625 53.5 28.6797 52.6797 28.9141C52.0938 29.0312 51.3906 28.7969 50.9219 28.4453L48.8125 26.2188C48.3438 26.4531 47.9922 26.5703 47.6406 26.8047L47.0547 27.1562C46.7031 27.3906 46.3516 27.625 46 27.8594L46.8203 30.7891C46.9375 31.375 46.8203 32.0781 46.3516 32.5469C45.1797 33.8359 44.2422 35.3594 43.6562 37.1172C43.5391 37.7031 43.0703 38.1719 42.3672 38.4062L39.4375 39.2266C39.4375 39.6953 39.4375 40.2812 39.4375 40.75C39.4375 41.3359 39.4375 41.9219 39.4375 42.3906ZM35.9219 44.2656C35.6875 43.0938 35.6875 41.9219 35.6875 40.75C35.6875 39.5781 35.6875 38.5234 35.9219 37.3516C36.0391 36.6484 36.625 36.0625 37.3281 35.9453L40.4922 35.0078C41.0781 33.4844 41.8984 32.0781 42.8359 30.7891L42.0156 27.625C41.8984 26.9219 42.1328 26.2188 42.7188 25.75C43.4219 25.0469 44.2422 24.4609 45.1797 23.875L45.7656 23.5234H45.8828C46.7031 23.0547 47.6406 22.5859 48.5781 22.2344C49.2812 22 49.9844 22.2344 50.5703 22.7031L52.9141 25.0469C53.7344 24.9297 54.5547 24.8125 55.375 24.8125C56.1953 24.8125 57.0156 24.9297 57.7188 25.0469L60.0625 22.7031C60.6484 22.2344 61.3516 22 62.0547 22.2344C62.9922 22.5859 63.9297 23.0547 64.8672 23.5234L65.4531 23.875V23.9922C66.3906 24.4609 67.2109 25.0469 68.0312 25.75C68.5 26.2188 68.7344 26.9219 68.6172 27.625L67.7969 30.7891C68.7344 32.0781 69.5547 33.4844 70.2578 35.0078L73.4219 35.9453C74.125 36.0625 74.5938 36.6484 74.7109 37.3516C74.9453 38.5234 75.0625 39.6953 75.0625 40.75C75.0625 41.9219 74.9453 43.0938 74.7109 44.2656C74.5938 44.9688 74.125 45.5547 73.4219 45.6719L70.2578 46.6094C69.5547 48.1328 68.7344 49.5391 67.7969 50.8281L68.6172 53.9922C68.8516 54.6953 68.5 55.3984 68.0312 55.8672C67.2109 56.5703 66.3906 57.1562 65.4531 57.7422L64.8672 57.9766C64.0469 58.5625 63.1094 58.9141 62.0547 59.2656C61.4688 59.5 60.6484 59.3828 60.1797 58.9141L57.8359 56.5703C57.0156 56.6875 56.1953 56.8047 55.375 56.8047C54.5547 56.8047 53.7344 56.6875 52.9141 56.5703L50.5703 58.9141C50.1016 59.3828 49.2812 59.6172 48.5781 59.2656C47.6406 58.9141 46.7031 58.5625 45.7656 57.9766L45.2969 57.7422C44.3594 57.1562 43.5391 56.5703 42.7188 55.8672C42.1328 55.3984 41.8984 54.6953 42.1328 53.9922L42.9531 50.8281C41.8984 49.5391 41.0781 48.1328 40.4922 46.6094L37.3281 45.6719C36.625 45.5547 36.0391 44.9688 35.9219 44.2656ZM55.375 47.3125C52.9141 47.3125 50.8047 46.1406 49.6328 44.0312C48.4609 42.0391 48.4609 39.5781 49.6328 37.4688C50.8047 35.4766 52.9141 34.1875 55.375 34.1875C57.7188 34.1875 59.8281 35.4766 61 37.4688C62.1719 39.5781 62.1719 42.0391 61 44.0312C59.8281 46.1406 57.7188 47.3125 55.375 47.3125ZM58.1875 40.75C58.1875 39.2266 56.8984 37.9375 55.375 37.9375C53.7344 37.9375 52.5625 39.2266 52.5625 40.75C52.5625 42.3906 53.7344 43.5625 55.375 43.5625C56.8984 43.5625 58.1875 42.3906 58.1875 40.75Z" fill="#1E3A5F"/>
</svg>
