<svg width="62" height="62" viewBox="0 0 62 62" fill="none" xmlns="http://www.w3.org/2000/svg">
<path d="M23.0312 45.0938C28.0703 42.9844 39.3203 38.0625 45.1797 34.1953C57.3672 25.875 58.0703 13.5703 56.6641 5.83594C48.9297 4.42969 36.625 5.13281 28.3047 17.3203C24.4375 23.0625 19.3984 34.1953 17.1719 39.2344L23.0312 45.0938ZM13.7734 37.8281C14.0078 37.125 14.3594 36.1875 14.8281 35.25H2.875C2.17188 35.25 1.58594 35.0156 1.23438 34.4297C0.882812 33.8438 0.882812 33.1406 1.11719 32.5547L7.09375 20.7188C8.38281 18.1406 10.9609 16.5 13.7734 16.5H24.3203C24.6719 16.0312 24.9062 15.6797 25.2578 15.2109C34.8672 1.03125 49.1641 0.5625 57.6016 2.20312C59.0078 2.4375 60.0625 3.49219 60.2969 4.89844C61.9375 13.3359 61.4688 27.6328 47.2891 37.2422C46.8203 37.5938 46.4688 37.8281 46 38.1797V48.7266C46 51.5391 44.3594 54.1172 41.7812 55.4062L29.9453 61.3828C29.3594 61.6172 28.6562 61.6172 28.0703 61.2656C27.4844 60.9141 27.25 60.3281 27.25 59.625L27.1328 47.4375C26.1953 47.9062 25.2578 48.2578 24.4375 48.6094C23.1484 49.1953 21.5078 48.8438 20.4531 47.7891L14.4766 41.9297C13.4219 40.7578 13.0703 39.2344 13.7734 37.8281ZM31 56.6953L40.1406 52.0078C41.4297 51.4219 42.25 50.1328 42.25 48.7266V40.2891C38.6172 42.2812 34.5156 44.1562 31 45.7969V56.6953ZM13.7734 20.25C12.3672 20.25 11.0781 21.0703 10.4922 22.3594L5.80469 31.5H16.5859C18.2266 27.9844 20.2188 23.8828 22.2109 20.25H13.7734ZM46.9375 18.375C46.9375 16.8516 45.6484 15.5625 44.125 15.5625C42.4844 15.5625 41.3125 16.8516 41.3125 18.375C41.3125 20.0156 42.4844 21.1875 44.125 21.1875C45.6484 21.1875 46.9375 20.0156 46.9375 18.375ZM44.125 11.8125C46.4688 11.8125 48.5781 13.1016 49.75 15.0938C50.9219 17.2031 50.9219 19.6641 49.75 21.6562C48.5781 23.7656 46.4688 24.9375 44.125 24.9375C41.6641 24.9375 39.5547 23.7656 38.3828 21.6562C37.2109 19.6641 37.2109 17.2031 38.3828 15.0938C39.5547 13.1016 41.6641 11.8125 44.125 11.8125Z" fill="white"/>
</svg>
