<svg width="61" height="61" viewBox="0 0 61 61" fill="none" xmlns="http://www.w3.org/2000/svg">
<path d="M45 24.875C45 17.6094 41.0156 10.8125 34.6875 7.0625C28.2422 3.42969 20.3906 3.42969 14.0625 7.0625C7.61719 10.8125 3.75 17.6094 3.75 24.875C3.75 32.2578 7.61719 39.0547 14.0625 42.8047C20.3906 46.4375 28.2422 46.4375 34.6875 42.8047C41.0156 39.0547 45 32.2578 45 24.875ZM40.1953 43.3906C35.9766 47.1406 30.3516 49.25 24.375 49.25C10.8984 49.25 0 38.3516 0 24.875C0 11.5156 10.8984 0.5 24.375 0.5C37.7344 0.5 48.75 11.5156 48.75 24.875C48.75 30.9688 46.5234 36.4766 42.8906 40.8125L59.4141 57.3359C60.1172 58.0391 60.1172 59.3281 59.4141 60.0312C58.7109 60.7344 57.4219 60.7344 56.7188 60.0312L40.1953 43.3906Z" fill="#1E3A5F"/>
</svg>
