<svg width="60" height="63" viewBox="0 0 60 63" fill="none" xmlns="http://www.w3.org/2000/svg">
<path d="M56.25 31.5C56.25 22.125 51.2109 13.5703 43.125 8.88281C34.9219 4.07812 24.9609 4.07812 16.875 8.88281C8.67188 13.5703 3.75 22.125 3.75 31.5C3.75 40.9922 8.67188 49.5469 16.875 54.2344C24.9609 59.0391 34.9219 59.0391 43.125 54.2344C51.2109 49.5469 56.25 40.9922 56.25 31.5ZM0 31.5C0 20.8359 5.625 10.9922 15 5.60156C24.2578 0.210938 35.625 0.210938 45 5.60156C54.2578 10.9922 60 20.8359 60 31.5C60 42.2812 54.2578 52.125 45 57.5156C35.625 62.9062 24.2578 62.9062 15 57.5156C5.625 52.125 0 42.2812 0 31.5ZM19.2188 39.7031C21.3281 42.1641 24.8438 44.625 30 44.625C35.0391 44.625 38.6719 42.1641 40.6641 39.7031C41.3672 38.8828 42.5391 38.8828 43.3594 39.4688C44.1797 40.1719 44.1797 41.3438 43.5938 42.1641C40.8984 45.2109 36.4453 48.375 30 48.375C23.4375 48.375 18.9844 45.2109 16.2891 42.1641C15.7031 41.3438 15.7031 40.1719 16.5234 39.4688C17.3438 38.8828 18.5156 38.8828 19.2188 39.7031ZM17.8125 25.875C17.8125 24.3516 19.1016 23.0625 20.625 23.0625C22.1484 23.0625 23.4375 24.3516 23.4375 25.875C23.4375 27.5156 22.1484 28.6875 20.625 28.6875C19.1016 28.6875 17.8125 27.5156 17.8125 25.875ZM39.375 23.0625C40.8984 23.0625 42.1875 24.3516 42.1875 25.875C42.1875 27.5156 40.8984 28.6875 39.375 28.6875C37.8516 28.6875 36.5625 27.5156 36.5625 25.875C36.5625 24.3516 37.8516 23.0625 39.375 23.0625Z" fill="white"/>
</svg>
