<svg width="64" height="61" viewBox="0 0 64 61" fill="none" xmlns="http://www.w3.org/2000/svg">
<path d="M32 4.25C22.5078 4.25 13.9531 9.28906 9.26562 17.375C4.46094 25.5781 4.46094 35.5391 9.26562 43.625C13.9531 51.8281 22.5078 56.75 32 56.75C41.375 56.75 49.9297 51.8281 54.6172 43.625C59.4219 35.5391 59.4219 25.5781 54.6172 17.375C49.9297 9.28906 41.375 4.25 32 4.25ZM32 60.5C21.2188 60.5 11.375 54.875 5.98438 45.5C0.59375 36.2422 0.59375 24.875 5.98438 15.5C11.375 6.24219 21.2188 0.5 32 0.5C42.6641 0.5 52.5078 6.24219 57.8984 15.5C63.2891 24.875 63.2891 36.2422 57.8984 45.5C52.5078 54.875 42.6641 60.5 32 60.5ZM34.8125 11.75C34.8125 13.3906 33.5234 14.5625 32 14.5625C30.3594 14.5625 29.1875 13.3906 29.1875 11.75C29.1875 10.2266 30.3594 8.9375 32 8.9375C33.5234 8.9375 34.8125 10.2266 34.8125 11.75ZM28.25 41.75C28.25 43.8594 29.8906 45.5 32 45.5C33.9922 45.5 35.75 43.8594 35.75 41.75C35.75 39.7578 33.9922 38 32 38C29.8906 38 28.25 39.7578 28.25 41.75ZM39.5 41.75C39.5 45.9688 36.1016 49.25 32 49.25C27.7812 49.25 24.5 45.9688 24.5 41.75C24.5 37.6484 27.7812 34.25 32 34.25C32.5859 34.25 33.1719 34.3672 33.7578 34.4844L43.3672 16.5547C43.9531 15.6172 45.0078 15.2656 45.9453 15.7344C46.8828 16.3203 47.2344 17.375 46.7656 18.3125L37.0391 36.2422C38.5625 37.6484 39.5 39.6406 39.5 41.75ZM21.6875 17.375C21.6875 19.0156 20.3984 20.1875 18.875 20.1875C17.2344 20.1875 16.0625 19.0156 16.0625 17.375C16.0625 15.8516 17.2344 14.5625 18.875 14.5625C20.3984 14.5625 21.6875 15.8516 21.6875 17.375ZM13.25 33.3125C11.6094 33.3125 10.4375 32.1406 10.4375 30.5C10.4375 28.9766 11.6094 27.6875 13.25 27.6875C14.7734 27.6875 16.0625 28.9766 16.0625 30.5C16.0625 32.1406 14.7734 33.3125 13.25 33.3125ZM53.5625 30.5C53.5625 32.1406 52.2734 33.3125 50.75 33.3125C49.1094 33.3125 47.9375 32.1406 47.9375 30.5C47.9375 28.9766 49.1094 27.6875 50.75 27.6875C52.2734 27.6875 53.5625 28.9766 53.5625 30.5Z" fill="#1E3A5F"/>
</svg>
