<svg xmlns="http://www.w3.org/2000/svg" id="Layer_1" version="1.1" viewBox="0 0 663.13 178.01"><defs><style>.st0{fill:#fff}.st1{fill:#1e3a5f}</style></defs><path d="M-418.44 865.68h1500v1500h-1500z"/><path d="M-1295.91 95.97c-3.93 0-7.6-.72-11-2.15-3.4-1.44-6.36-3.41-8.88-5.93-2.52-2.52-4.5-5.44-5.93-8.77-1.44-3.33-2.15-6.93-2.15-10.81s.73-7.55 2.19-10.85 3.5-6.2 6.12-8.69c2.62-2.49 5.66-4.45 9.11-5.86 3.45-1.41 7.17-2.12 11.15-2.12 4.59 0 8.77.84 12.55 2.53 3.78 1.69 6.9 3.99 9.37 6.92l-8.16 8.16c-1.66-2.22-3.67-3.89-6.01-5.03-2.34-1.13-4.95-1.7-7.82-1.7-3.13 0-5.92.69-8.39 2.08-2.47 1.39-4.4 3.33-5.78 5.82-1.39 2.5-2.08 5.4-2.08 8.73s.68 6.17 2.04 8.69c1.36 2.52 3.22 4.5 5.59 5.93 2.37 1.44 5.09 2.15 8.16 2.15s5.71-.59 7.9-1.78c2.19-1.18 3.88-2.91 5.06-5.18 1.18-2.27 1.78-4.99 1.78-8.16l7.94 5.29-23.81-.38V64.81h28.04v1.74c0 6.35-1.15 11.72-3.44 16.1-2.29 4.38-5.47 7.7-9.52 9.94-4.06 2.24-8.73 3.36-14.02 3.36ZM-1261.82 95.06V41.69h11.94v53.37h-11.94Zm9.15-43.08V41.7h28.88v10.28h-28.88Zm0 20.86V62.79h26.61v10.05h-26.61Zm0 22.22V84.78h29.33v10.28h-29.33ZM-1215.33 95.06V41.69h11.94v53.37h-11.94Zm9.15-21.92v-8.92h11.26c2.32 0 4.13-.59 5.44-1.78 1.31-1.18 1.97-2.78 1.97-4.8s-.64-3.5-1.93-4.76c-1.28-1.26-3.09-1.89-5.4-1.89h-11.34v-9.3h12.7c3.58 0 6.7.67 9.37 2 2.67 1.34 4.75 3.19 6.24 5.56 1.49 2.37 2.23 5.06 2.23 8.09 0 3.23-.76 6.01-2.27 8.35s-3.63 4.17-6.35 5.48c-2.72 1.31-5.92 1.97-9.6 1.97h-12.32Zm19.88 21.92-16.63-22.98 10.96-3.02 19.8 26h-14.14ZM-1167.18 95.06V41.69h8.62l21.02 32.73h-4.46l20.94-32.73h8.62v53.37h-11.87V61.72l2.04.6-13.61 21.24h-7.86l-13.61-21.24 2.04-.6v33.34h-11.87ZM-1102.32 95.06V41.69h11.94v53.37h-11.94Zm9.15-43.08V41.7h28.88v10.28h-28.88Zm0 20.86V62.79h26.61v10.05h-26.61Zm0 22.22V84.78h29.33v10.28h-29.33ZM-1055.83 95.06V41.69h11.94v53.37h-11.94Zm9.14-21.92v-8.92h11.26c2.32 0 4.13-.59 5.44-1.78 1.31-1.18 1.97-2.78 1.97-4.8s-.64-3.5-1.93-4.76c-1.29-1.26-3.09-1.89-5.4-1.89h-11.34v-9.3h12.7c3.58 0 6.7.67 9.37 2 2.67 1.34 4.75 3.19 6.24 5.56 1.49 2.37 2.23 5.06 2.23 8.09 0 3.23-.75 6.01-2.27 8.35-1.51 2.34-3.63 4.17-6.35 5.48-2.72 1.31-5.92 1.97-9.6 1.97h-12.32Zm19.88 21.92-16.63-22.98 10.96-3.02 19.8 26h-14.14ZM-982.36 95.97c-4.03 0-7.76-.71-11.19-2.12-3.43-1.41-6.43-3.38-8.99-5.9a26.743 26.743 0 0 1-5.97-8.81c-1.41-3.35-2.12-6.97-2.12-10.85s.7-7.56 2.12-10.89c1.41-3.33 3.38-6.24 5.9-8.73 2.52-2.49 5.49-4.43 8.92-5.82 3.43-1.39 7.15-2.08 11.19-2.08s7.67.69 11.07 2.08c3.4 1.39 6.39 3.33 8.96 5.82 2.57 2.49 4.55 5.42 5.93 8.77 1.38 3.35 2.08 6.99 2.08 10.92s-.71 7.5-2.12 10.85a27.08 27.08 0 0 1-5.89 8.77c-2.52 2.49-5.47 4.45-8.84 5.86-3.38 1.41-7.06 2.12-11.04 2.12Zm-.15-10.88c3.18 0 5.95-.71 8.32-2.12 2.37-1.41 4.22-3.38 5.56-5.9 1.33-2.52 2-5.44 2-8.77 0-2.47-.38-4.72-1.13-6.77-.76-2.04-1.84-3.8-3.25-5.29-1.41-1.49-3.1-2.62-5.07-3.4-1.97-.78-4.11-1.17-6.43-1.17-3.18 0-5.96.69-8.35 2.08-2.4 1.39-4.25 3.33-5.56 5.82-1.31 2.5-1.97 5.4-1.97 8.73 0 2.52.38 4.81 1.13 6.88.76 2.07 1.84 3.84 3.25 5.33 1.41 1.49 3.09 2.62 5.03 3.4 1.94.78 4.1 1.17 6.46 1.17ZM-950.53 52.13V41.7h45.36v10.43h-45.36Zm16.7 42.93V42.37h12.02v52.69h-12.02ZM-902.23 52.13V41.7h45.36v10.43h-45.36Zm16.71 42.93V42.37h12.02v52.69h-12.02ZM-1318.61 136.82v-23.16h2.49v23.16h-2.49Zm1.62-9.29v-2.19h6.8c.96 0 1.82-.19 2.58-.57.75-.38 1.34-.93 1.77-1.63.43-.71.64-1.55.64-2.54s-.21-1.83-.64-2.54a4.286 4.286 0 0 0-1.77-1.63c-.75-.38-1.61-.57-2.58-.57h-6.8v-2.19h7c1.39 0 2.64.29 3.74.86 1.1.57 1.97 1.38 2.61 2.42.64 1.04.96 2.26.96 3.65s-.32 2.64-.96 3.67a6.666 6.666 0 0 1-2.61 2.41c-1.1.57-2.35.86-3.74.86h-7ZM-1298.47 136.82v-23.16h2.49v23.16h-2.49Zm1.65-20.91v-2.26h13.43v2.26h-13.43Zm0 10.13v-2.19h12.56v2.19h-12.56Zm0 10.78v-2.26h13.63v2.26h-13.63ZM-1278.65 136.82v-23.16h2.49v23.16h-2.49Zm1.62-10.34v-2.12h6.7c1.53 0 2.7-.39 3.52-1.16.82-.77 1.23-1.8 1.23-3.08s-.4-2.28-1.21-3.08c-.81-.8-1.98-1.2-3.5-1.2h-6.73v-2.19h6.73c1.5 0 2.79.27 3.87.82 1.08.55 1.9 1.31 2.47 2.27.57.97.86 2.06.86 3.3 0 1.3-.29 2.43-.86 3.38-.57.95-1.4 1.7-2.47 2.24-1.08.54-2.37.81-3.87.81h-6.73Zm12.39 10.34-8.69-10.71 2.42-.77 9.46 11.48h-3.2ZM-1257.84 136.82v-23.16h2.49v23.16h-2.49Zm1.65-20.91v-2.26h12.99v2.26h-12.99Zm0 10.47v-2.29h12.42v2.29h-12.42ZM-1228.79 137.15c-1.64 0-3.16-.31-4.58-.93-1.41-.62-2.65-1.47-3.7-2.56-1.06-1.09-1.87-2.36-2.46-3.8-.58-1.45-.88-3-.88-4.66s.29-3.24.88-4.68c.58-1.44 1.4-2.69 2.44-3.77s2.27-1.92 3.67-2.53c1.4-.61 2.92-.91 4.56-.91s3.16.3 4.56.91c1.4.61 2.63 1.45 3.69 2.53 1.05 1.08 1.87 2.34 2.46 3.79.58 1.45.88 3.01.88 4.7s-.29 3.21-.88 4.66a11.522 11.522 0 0 1-6.09 6.33c-1.39.62-2.91.93-4.54.93Zm-.07-2.39c1.75 0 3.3-.41 4.65-1.25 1.35-.83 2.41-1.96 3.2-3.4s1.18-3.07 1.18-4.91c0-1.37-.22-2.63-.67-3.79a9.19 9.19 0 0 0-1.88-3.01 8.71 8.71 0 0 0-2.86-1.99c-1.1-.47-2.3-.71-3.6-.71-1.73 0-3.27.41-4.63 1.23-1.36.82-2.42 1.94-3.2 3.37-.77 1.43-1.16 3.06-1.16 4.9 0 1.37.22 2.64.67 3.8a9.334 9.334 0 0 0 1.89 3.05c.81.86 1.76 1.53 2.86 2 1.1.47 2.29.71 3.57.71ZM-1212.53 136.82v-23.16h2.49v23.16h-2.49Zm1.62-10.34v-2.12h6.7c1.53 0 2.7-.39 3.52-1.16.82-.77 1.23-1.8 1.23-3.08s-.4-2.28-1.21-3.08c-.81-.8-1.98-1.2-3.5-1.2h-6.73v-2.19h6.73c1.5 0 2.79.27 3.87.82 1.08.55 1.9 1.31 2.47 2.27.57.97.86 2.06.86 3.3 0 1.3-.29 2.43-.86 3.38-.57.95-1.4 1.7-2.47 2.24-1.08.54-2.37.81-3.87.81h-6.73Zm12.38 10.34-8.69-10.71 2.42-.77 9.46 11.48h-3.2ZM-1191.73 136.82v-23.16h1.78l10 16.39h-1.28l10-16.39h1.78v23.16h-2.49v-18.85l.57.17-8.35 13.7h-1.75l-8.35-13.7.57-.17v18.85h-2.49ZM-1165.27 136.82l9.46-23.16h1.88l9.39 23.16h-2.69l-8.15-20.43h.98l-8.25 20.43h-2.63Zm4.35-6.03v-2.15h12.12v2.15h-12.12ZM-1140.36 136.82v-23.16h1.78l.71 2.93v20.23h-2.49Zm16.03 0-14.61-19.86.37-3.3 14.61 19.86-.37 3.3Zm0 0-.71-2.79v-20.37h2.49v23.16h-1.78ZM-1106.19 137.15c-1.66 0-3.2-.3-4.61-.91-1.41-.61-2.65-1.46-3.7-2.56a11.88 11.88 0 0 1-2.46-3.82c-.58-1.45-.88-3-.88-4.66s.29-3.21.86-4.66 1.39-2.71 2.44-3.79 2.28-1.92 3.69-2.53c1.4-.61 2.93-.91 4.59-.91 1.77 0 3.36.31 4.76.94 1.4.63 2.63 1.49 3.69 2.59l-1.72 1.72c-.79-.9-1.75-1.6-2.89-2.1-1.14-.5-2.42-.76-3.84-.76-1.3 0-2.5.24-3.59.71a8.62 8.62 0 0 0-2.86 1.99c-.82.85-1.45 1.86-1.88 3.03-.44 1.17-.66 2.42-.66 3.77s.22 2.64.67 3.8 1.08 2.18 1.89 3.05c.81.86 1.76 1.53 2.86 2 1.1.47 2.3.71 3.6.71 1.48 0 2.8-.26 3.96-.77 1.16-.52 2.13-1.22 2.91-2.12l1.72 1.72c-1.03 1.12-2.27 2-3.72 2.63-1.45.63-3.06.94-4.83.94ZM-1093.36 136.82v-23.16h2.49v23.16h-2.49Zm1.65-20.91v-2.26h13.43v2.26h-13.43Zm0 10.13v-2.19h12.56v2.19h-12.56Zm0 10.78v-2.26h13.63v2.26h-13.63ZM-1051.58 137.22c-1.66 0-3.2-.3-4.61-.91-1.41-.61-2.65-1.46-3.7-2.56a12.05 12.05 0 0 1-2.46-3.82c-.58-1.45-.88-3-.88-4.66s.29-3.21.86-4.66c.57-1.45 1.39-2.71 2.44-3.79s2.28-1.92 3.69-2.53c1.4-.61 2.93-.91 4.6-.91 1.77 0 3.36.31 4.76.94 1.4.63 2.63 1.49 3.69 2.59l-1.72 1.72c-.79-.9-1.75-1.6-2.9-2.1-1.14-.5-2.42-.76-3.84-.76-1.3 0-2.5.24-3.59.71a8.62 8.62 0 0 0-2.86 1.99c-.82.85-1.45 1.86-1.89 3.03-.44 1.17-.66 2.42-.66 3.77s.22 2.64.67 3.8 1.08 2.18 1.89 3.05c.81.86 1.76 1.53 2.86 2 1.1.47 2.3.71 3.6.71 1.48 0 2.8-.26 3.96-.77 1.16-.52 2.13-1.22 2.91-2.12l1.72 1.72c-1.03 1.12-2.27 2-3.72 2.63-1.45.63-3.06.94-4.83.94ZM-1028.29 137.22c-1.64 0-3.16-.31-4.58-.93-1.41-.62-2.65-1.47-3.7-2.56a11.959 11.959 0 0 1-2.46-3.8c-.58-1.45-.88-3-.88-4.66s.29-3.24.88-4.68c.58-1.44 1.4-2.69 2.44-3.77s2.27-1.92 3.67-2.53c1.4-.61 2.92-.91 4.56-.91s3.16.3 4.56.91c1.4.61 2.63 1.45 3.69 2.53 1.05 1.08 1.87 2.34 2.46 3.79.58 1.45.88 3.01.88 4.7s-.29 3.21-.88 4.66a11.522 11.522 0 0 1-6.09 6.33c-1.39.62-2.91.93-4.54.93Zm-.07-2.39c1.75 0 3.3-.41 4.65-1.25 1.35-.83 2.41-1.96 3.2-3.4s1.18-3.07 1.18-4.91c0-1.37-.22-2.63-.67-3.79a9.05 9.05 0 0 0-1.89-3.01 8.71 8.71 0 0 0-2.86-1.99c-1.1-.47-2.3-.71-3.6-.71-1.73 0-3.27.41-4.63 1.23-1.36.82-2.42 1.94-3.2 3.37-.77 1.43-1.16 3.06-1.16 4.9 0 1.37.22 2.64.67 3.8a9.334 9.334 0 0 0 1.89 3.05c.81.86 1.76 1.53 2.86 2s2.29.71 3.57.71ZM-1012.03 136.88v-23.16h1.78l.71 2.93v20.23h-2.49Zm16.02 0-14.61-19.86.37-3.3 14.61 19.86-.37 3.3Zm0 0-.71-2.79v-20.37h2.49v23.16h-1.78ZM-982.41 137.22c-1.82 0-3.38-.34-4.68-1.01-1.3-.67-2.44-1.64-3.4-2.89l1.72-1.68c.79 1.1 1.7 1.92 2.74 2.46 1.04.54 2.28.81 3.72.81s2.68-.34 3.59-1.01c.91-.67 1.36-1.6 1.36-2.79 0-.92-.21-1.68-.62-2.27-.42-.59-.97-1.08-1.67-1.45-.7-.37-1.45-.7-2.27-.99-.82-.29-1.64-.6-2.47-.93-.83-.33-1.59-.73-2.27-1.21a5.564 5.564 0 0 1-1.67-1.89c-.43-.77-.64-1.76-.64-2.95 0-1.26.3-2.33.91-3.23.61-.9 1.44-1.59 2.51-2.07 1.07-.48 2.27-.72 3.62-.72 1.5 0 2.84.29 4.02.88 1.18.58 2.16 1.37 2.95 2.36l-1.72 1.72c-.72-.87-1.5-1.53-2.36-1.97-.85-.44-1.84-.66-2.96-.66-1.35 0-2.42.31-3.23.94s-1.21 1.5-1.21 2.63c0 .85.21 1.55.62 2.09s.97.99 1.67 1.35c.7.36 1.45.68 2.27.96.82.28 1.64.59 2.47.93.83.34 1.59.76 2.27 1.28.68.52 1.24 1.17 1.67 1.97.43.8.64 1.81.64 3.05 0 2-.68 3.55-2.04 4.66-1.36 1.11-3.2 1.67-5.54 1.67ZM-961.3 137.22c-1.68 0-3.18-.38-4.49-1.13a8.264 8.264 0 0 1-3.11-3.1c-.76-1.31-1.14-2.79-1.14-4.43v-14.85h2.49v14.71c0 1.3.27 2.44.82 3.4.55.97 1.3 1.71 2.24 2.22.94.52 2.01.77 3.2.77s2.25-.26 3.18-.77c.93-.52 1.67-1.26 2.21-2.22.54-.96.81-2.09.81-3.37v-14.74h2.49v14.88c0 1.64-.38 3.11-1.13 4.41a8.187 8.187 0 0 1-3.1 3.08c-1.31.75-2.8 1.13-4.46 1.13ZM-947.03 136.88v-23.16h2.49v23.16h-2.49Zm1.65 0v-2.26h12.76v2.26h-12.76ZM-933.36 115.98v-2.26h18.82v2.26h-18.82Zm8.18 20.9v-22.52h2.49v22.52h-2.49ZM-910.4 136.88v-23.16h2.49v23.16h-2.49ZM-902.02 136.88v-23.16h1.78l.71 2.93v20.23h-2.49Zm16.03 0-14.61-19.86.37-3.3 14.61 19.86-.37 3.3Zm0 0-.71-2.79v-20.37h2.49v23.16h-1.78ZM-867.85 137.22c-1.64 0-3.17-.31-4.59-.93-1.43-.62-2.66-1.46-3.7-2.54a12.034 12.034 0 0 1-2.46-3.79c-.59-1.45-.89-3.01-.89-4.7s.3-3.24.89-4.68c.59-1.44 1.43-2.7 2.49-3.79 1.07-1.09 2.31-1.94 3.74-2.54 1.43-.61 2.98-.91 4.66-.91 1.86 0 3.57.37 5.13 1.11 1.56.74 2.86 1.78 3.89 3.13l-1.75 1.75a7.748 7.748 0 0 0-3.08-2.68c-1.27-.62-2.67-.93-4.19-.93-1.8 0-3.39.41-4.78 1.23a8.659 8.659 0 0 0-3.25 3.38c-.77 1.44-1.16 3.09-1.16 4.95s.39 3.48 1.16 4.91a8.609 8.609 0 0 0 3.2 3.38c1.36.82 2.9 1.23 4.63 1.23s3.22-.35 4.48-1.04c1.26-.7 2.23-1.71 2.93-3.03.7-1.32 1.04-2.92 1.04-4.78l1.41 1.04h-10.1v-2.26h11.28v.37c0 2.6-.47 4.81-1.4 6.61s-2.22 3.17-3.87 4.09c-1.65.92-3.55 1.38-5.71 1.38Z" class="st1"/><circle cx="-1431" cy="89" r="89" class="st1"/><path d="M-1385.58 101.19V60.8c0-3.85-1.5-7.48-4.22-10.2s-6.35-4.22-10.2-4.22h-40.39c-5.21 0-10.1 2.03-13.78 5.71l-33.21 33.21 23.27 6.33 24.32-24.32h33.28v33.28l-24.32 24.32 6.33 23.27 33.21-33.21c3.68-3.68 5.71-8.58 5.71-13.78Z" class="st0"/><path d="m-1445.19 97.94-18.86-6.26-15.59 15.59 24.05 9.12 9.14 24.13 15.61-15.61-6.31-18.91a13.864 13.864 0 0 0-8.05-8.05ZM224.09 95.97c-3.93 0-7.6-.72-11-2.15s-6.36-3.41-8.88-5.93c-2.52-2.52-4.5-5.44-5.93-8.77-1.44-3.33-2.15-6.93-2.15-10.81s.73-7.55 2.19-10.85 3.5-6.2 6.12-8.69c2.62-2.49 5.66-4.45 9.11-5.86 3.45-1.41 7.17-2.12 11.15-2.12 4.59 0 8.77.84 12.55 2.53 3.78 1.69 6.9 3.99 9.37 6.92l-8.16 8.16c-1.66-2.22-3.67-3.89-6.01-5.03-2.34-1.13-4.95-1.7-7.82-1.7-3.13 0-5.92.69-8.39 2.08-2.47 1.39-4.4 3.33-5.78 5.82-1.39 2.5-2.08 5.4-2.08 8.73s.68 6.17 2.04 8.69c1.36 2.52 3.22 4.5 5.59 5.93 2.37 1.44 5.09 2.15 8.16 2.15s5.71-.59 7.9-1.78c2.19-1.18 3.88-2.91 5.06-5.18 1.18-2.27 1.78-4.99 1.78-8.16l7.94 5.29-23.81-.38V64.81h28.04v1.74c0 6.35-1.15 11.72-3.44 16.1-2.29 4.38-5.47 7.7-9.52 9.94-4.06 2.24-8.73 3.36-14.02 3.36ZM258.18 95.06V41.69h11.94v53.37h-11.94Zm9.15-43.08V41.7h28.88v10.28h-28.88Zm0 20.86V62.79h26.61v10.05h-26.61Zm0 22.22V84.78h29.33v10.28h-29.33ZM304.67 95.06V41.69h11.94v53.37h-11.94Zm9.15-21.92v-8.92h11.26c2.32 0 4.13-.59 5.44-1.78 1.31-1.18 1.97-2.78 1.97-4.8s-.64-3.5-1.93-4.76c-1.28-1.26-3.09-1.89-5.4-1.89h-11.34v-9.3h12.7c3.58 0 6.7.67 9.37 2 2.67 1.34 4.75 3.19 6.24 5.56 1.49 2.37 2.23 5.06 2.23 8.09 0 3.23-.76 6.01-2.27 8.35s-3.63 4.17-6.35 5.48c-2.72 1.31-5.92 1.97-9.6 1.97h-12.32Zm19.88 21.92-16.63-22.98 10.96-3.02 19.8 26h-14.14ZM352.82 95.06V41.69h8.62l21.02 32.73H378l20.94-32.73h8.62v53.37h-11.87V61.72l2.04.6-13.61 21.24h-7.86l-13.61-21.24 2.04-.6v33.34h-11.87ZM417.68 95.06V41.69h11.94v53.37h-11.94Zm9.15-43.08V41.7h28.88v10.28h-28.88Zm0 20.86V62.79h26.61v10.05h-26.61Zm0 22.22V84.78h29.33v10.28h-29.33ZM464.17 95.06V41.69h11.94v53.37h-11.94Zm9.14-21.92v-8.92h11.26c2.32 0 4.13-.59 5.44-1.78 1.31-1.18 1.97-2.78 1.97-4.8s-.64-3.5-1.93-4.76c-1.29-1.26-3.09-1.89-5.4-1.89h-11.34v-9.3h12.7c3.58 0 6.7.67 9.37 2 2.67 1.34 4.75 3.19 6.24 5.56 1.49 2.37 2.23 5.06 2.23 8.09 0 3.23-.75 6.01-2.27 8.35-1.51 2.34-3.63 4.17-6.35 5.48-2.72 1.31-5.92 1.97-9.6 1.97h-12.32Zm19.88 21.92-16.63-22.98 10.96-3.02 19.8 26h-14.14ZM537.64 95.97c-4.03 0-7.76-.71-11.19-2.12-3.43-1.41-6.43-3.38-8.99-5.9s-4.56-5.46-5.97-8.81c-1.41-3.35-2.12-6.97-2.12-10.85s.7-7.56 2.12-10.89c1.41-3.33 3.38-6.24 5.9-8.73 2.52-2.49 5.49-4.43 8.92-5.82 3.43-1.39 7.15-2.08 11.19-2.08s7.67.69 11.07 2.08c3.4 1.39 6.39 3.33 8.96 5.82 2.57 2.49 4.55 5.42 5.93 8.77 1.38 3.35 2.08 6.99 2.08 10.92s-.71 7.5-2.12 10.85a27.08 27.08 0 0 1-5.89 8.77c-2.52 2.49-5.47 4.45-8.84 5.86-3.38 1.41-7.06 2.12-11.04 2.12Zm-.15-10.88c3.18 0 5.95-.71 8.32-2.12 2.37-1.41 4.22-3.38 5.56-5.9 1.33-2.52 2-5.44 2-8.77 0-2.47-.38-4.72-1.13-6.77-.76-2.04-1.84-3.8-3.25-5.29-1.41-1.49-3.1-2.62-5.07-3.4s-4.11-1.17-6.43-1.17c-3.18 0-5.96.69-8.35 2.08-2.4 1.39-4.25 3.33-5.56 5.82-1.31 2.5-1.97 5.4-1.97 8.73 0 2.52.38 4.81 1.13 6.88.76 2.07 1.84 3.84 3.25 5.33 1.41 1.49 3.09 2.62 5.03 3.4 1.94.78 4.1 1.17 6.46 1.17ZM569.47 52.13V41.7h45.36v10.43h-45.36Zm16.7 42.93V42.37h12.02v52.69h-12.02ZM617.77 52.13V41.7h45.36v10.43h-45.36Zm16.71 42.93V42.37h12.02v52.69h-12.02ZM201.39 136.82v-23.16h2.49v23.16h-2.49Zm1.62-9.29v-2.19h6.8c.96 0 1.82-.19 2.58-.57.75-.38 1.34-.93 1.77-1.63.43-.71.64-1.55.64-2.54s-.21-1.83-.64-2.54a4.286 4.286 0 0 0-1.77-1.63c-.75-.38-1.61-.57-2.58-.57h-6.8v-2.19h7c1.39 0 2.64.29 3.74.86 1.1.57 1.97 1.38 2.61 2.42.64 1.04.96 2.26.96 3.65s-.32 2.64-.96 3.67a6.666 6.666 0 0 1-2.61 2.41c-1.1.57-2.35.86-3.74.86h-7ZM221.53 136.82v-23.16h2.49v23.16h-2.49Zm1.65-20.91v-2.26h13.43v2.26h-13.43Zm0 10.13v-2.19h12.56v2.19h-12.56Zm0 10.78v-2.26h13.63v2.26h-13.63ZM241.35 136.82v-23.16h2.49v23.16h-2.49Zm1.62-10.34v-2.12h6.7c1.53 0 2.7-.39 3.52-1.16.82-.77 1.23-1.8 1.23-3.08s-.4-2.28-1.21-3.08c-.81-.8-1.98-1.2-3.5-1.2h-6.73v-2.19h6.73c1.5 0 2.79.27 3.87.82 1.08.55 1.9 1.31 2.47 2.27.57.97.86 2.06.86 3.3 0 1.3-.29 2.43-.86 3.38-.57.95-1.4 1.7-2.47 2.24-1.08.54-2.37.81-3.87.81h-6.73Zm12.39 10.34-8.69-10.71 2.42-.77 9.46 11.48h-3.2ZM262.16 136.82v-23.16h2.49v23.16h-2.49Zm1.65-20.91v-2.26h12.99v2.26h-12.99Zm0 10.47v-2.29h12.42v2.29h-12.42ZM291.21 137.15c-1.64 0-3.16-.31-4.58-.93-1.41-.62-2.65-1.47-3.7-2.56-1.06-1.09-1.87-2.36-2.46-3.8-.58-1.45-.88-3-.88-4.66s.29-3.24.88-4.68c.58-1.44 1.4-2.69 2.44-3.77s2.27-1.92 3.67-2.53c1.4-.61 2.92-.91 4.56-.91s3.16.3 4.56.91c1.4.61 2.63 1.45 3.69 2.53 1.05 1.08 1.87 2.34 2.46 3.79.58 1.45.88 3.01.88 4.7s-.29 3.21-.88 4.66a11.522 11.522 0 0 1-6.09 6.33c-1.39.62-2.91.93-4.54.93Zm-.07-2.39c1.75 0 3.3-.41 4.65-1.25 1.35-.83 2.41-1.96 3.2-3.4s1.18-3.07 1.18-4.91c0-1.37-.22-2.63-.67-3.79s-1.08-2.16-1.88-3.01a8.71 8.71 0 0 0-2.86-1.99c-1.1-.47-2.3-.71-3.6-.71-1.73 0-3.27.41-4.63 1.23-1.36.82-2.42 1.94-3.2 3.37-.77 1.43-1.16 3.06-1.16 4.9 0 1.37.22 2.64.67 3.8a9.334 9.334 0 0 0 1.89 3.05c.81.86 1.76 1.53 2.86 2 1.1.47 2.29.71 3.57.71ZM307.47 136.82v-23.16h2.49v23.16h-2.49Zm1.62-10.34v-2.12h6.7c1.53 0 2.7-.39 3.52-1.16.82-.77 1.23-1.8 1.23-3.08s-.4-2.28-1.21-3.08c-.81-.8-1.98-1.2-3.5-1.2h-6.73v-2.19h6.73c1.5 0 2.79.27 3.87.82 1.08.55 1.9 1.31 2.47 2.27.57.97.86 2.06.86 3.3 0 1.3-.29 2.43-.86 3.38-.57.95-1.4 1.7-2.47 2.24-1.08.54-2.37.81-3.87.81h-6.73Zm12.38 10.34-8.69-10.71 2.42-.77 9.46 11.48h-3.2ZM328.27 136.82v-23.16h1.78l10 16.39h-1.28l10-16.39h1.78v23.16h-2.49v-18.85l.57.17-8.35 13.7h-1.75l-8.35-13.7.57-.17v18.85h-2.49ZM354.73 136.82l9.46-23.16h1.88l9.39 23.16h-2.69l-8.15-20.43h.98l-8.25 20.43h-2.63Zm4.35-6.03v-2.15h12.12v2.15h-12.12ZM379.64 136.82v-23.16h1.78l.71 2.93v20.23h-2.49Zm16.03 0-14.61-19.86.37-3.3 14.61 19.86-.37 3.3Zm0 0-.71-2.79v-20.37h2.49v23.16h-1.78ZM413.81 137.15c-1.66 0-3.2-.3-4.61-.91-1.41-.61-2.65-1.46-3.7-2.56a11.88 11.88 0 0 1-2.46-3.82c-.58-1.45-.88-3-.88-4.66s.29-3.21.86-4.66c.57-1.45 1.39-2.71 2.44-3.79s2.28-1.92 3.69-2.53c1.4-.61 2.93-.91 4.59-.91 1.77 0 3.36.31 4.76.94 1.4.63 2.63 1.49 3.69 2.59l-1.72 1.72c-.79-.9-1.75-1.6-2.89-2.1-1.14-.5-2.42-.76-3.84-.76-1.3 0-2.5.24-3.59.71a8.62 8.62 0 0 0-2.86 1.99c-.82.85-1.45 1.86-1.88 3.03-.44 1.17-.66 2.42-.66 3.77s.22 2.64.67 3.8 1.08 2.18 1.89 3.05c.81.86 1.76 1.53 2.86 2 1.1.47 2.3.71 3.6.71 1.48 0 2.8-.26 3.96-.77 1.16-.52 2.13-1.22 2.91-2.12l1.72 1.72c-1.03 1.12-2.27 2-3.72 2.63-1.45.63-3.06.94-4.83.94ZM426.64 136.82v-23.16h2.49v23.16h-2.49Zm1.65-20.91v-2.26h13.43v2.26h-13.43Zm0 10.13v-2.19h12.56v2.19h-12.56Zm0 10.78v-2.26h13.63v2.26h-13.63ZM468.42 137.22c-1.66 0-3.2-.3-4.61-.91-1.41-.61-2.65-1.46-3.7-2.56a12.05 12.05 0 0 1-2.46-3.82c-.58-1.45-.88-3-.88-4.66s.29-3.21.86-4.66c.57-1.45 1.39-2.71 2.44-3.79s2.28-1.92 3.69-2.53c1.4-.61 2.93-.91 4.6-.91 1.77 0 3.36.31 4.76.94 1.4.63 2.63 1.49 3.69 2.59l-1.72 1.72c-.79-.9-1.75-1.6-2.9-2.1-1.14-.5-2.42-.76-3.84-.76-1.3 0-2.5.24-3.59.71a8.62 8.62 0 0 0-2.86 1.99c-.82.85-1.45 1.86-1.89 3.03-.44 1.17-.66 2.42-.66 3.77s.22 2.64.67 3.8a9.334 9.334 0 0 0 1.89 3.05c.81.86 1.76 1.53 2.86 2 1.1.47 2.3.71 3.6.71 1.48 0 2.8-.26 3.96-.77 1.16-.52 2.13-1.22 2.91-2.12l1.72 1.72c-1.03 1.12-2.27 2-3.72 2.63-1.45.63-3.06.94-4.83.94ZM491.71 137.22c-1.64 0-3.16-.31-4.58-.93-1.41-.62-2.65-1.47-3.7-2.56a11.959 11.959 0 0 1-2.46-3.8c-.58-1.45-.88-3-.88-4.66s.29-3.24.88-4.68c.58-1.44 1.4-2.69 2.44-3.77s2.27-1.92 3.67-2.53c1.4-.61 2.92-.91 4.56-.91s3.16.3 4.56.91c1.4.61 2.63 1.45 3.69 2.53 1.05 1.08 1.87 2.34 2.46 3.79.58 1.45.88 3.01.88 4.7s-.29 3.21-.88 4.66a11.522 11.522 0 0 1-6.09 6.33c-1.39.62-2.91.93-4.54.93Zm-.07-2.39c1.75 0 3.3-.41 4.65-1.25 1.35-.83 2.41-1.96 3.2-3.4s1.18-3.07 1.18-4.91c0-1.37-.22-2.63-.67-3.79a9.05 9.05 0 0 0-1.89-3.01 8.71 8.71 0 0 0-2.86-1.99c-1.1-.47-2.3-.71-3.6-.71-1.73 0-3.27.41-4.63 1.23-1.36.82-2.42 1.94-3.2 3.37-.77 1.43-1.16 3.06-1.16 4.9 0 1.37.22 2.64.67 3.8a9.334 9.334 0 0 0 1.89 3.05c.81.86 1.76 1.53 2.86 2s2.29.71 3.57.71ZM507.97 136.88v-23.16h1.78l.71 2.93v20.23h-2.49Zm16.02 0-14.61-19.86.37-3.3 14.61 19.86-.37 3.3Zm0 0-.71-2.79v-20.37h2.49v23.16h-1.78ZM537.59 137.22c-1.82 0-3.38-.34-4.68-1.01-1.3-.67-2.44-1.64-3.4-2.89l1.72-1.68c.79 1.1 1.7 1.92 2.74 2.46 1.04.54 2.28.81 3.72.81s2.68-.34 3.59-1.01c.91-.67 1.36-1.6 1.36-2.79 0-.92-.21-1.68-.62-2.27-.42-.59-.97-1.08-1.67-1.45-.7-.37-1.45-.7-2.27-.99-.82-.29-1.64-.6-2.47-.93-.83-.33-1.59-.73-2.27-1.21a5.564 5.564 0 0 1-1.67-1.89c-.43-.77-.64-1.76-.64-2.95 0-1.26.3-2.33.91-3.23.61-.9 1.44-1.59 2.51-2.07 1.07-.48 2.27-.72 3.62-.72 1.5 0 2.84.29 4.02.88 1.18.58 2.16 1.37 2.95 2.36l-1.72 1.72c-.72-.87-1.5-1.53-2.36-1.97-.85-.44-1.84-.66-2.96-.66-1.35 0-2.42.31-3.23.94s-1.21 1.5-1.21 2.63c0 .85.21 1.55.62 2.09s.97.99 1.67 1.35c.7.36 1.45.68 2.27.96.82.28 1.64.59 2.47.93.83.34 1.59.76 2.27 1.28.68.52 1.24 1.17 1.67 1.97.43.8.64 1.81.64 3.05 0 2-.68 3.55-2.04 4.66-1.36 1.11-3.2 1.67-5.54 1.67ZM558.7 137.22c-1.68 0-3.18-.38-4.49-1.13a8.264 8.264 0 0 1-3.11-3.1c-.76-1.31-1.14-2.79-1.14-4.43v-14.85h2.49v14.71c0 1.3.27 2.44.82 3.4.55.97 1.3 1.71 2.24 2.22.94.52 2.01.77 3.2.77s2.25-.26 3.18-.77c.93-.52 1.67-1.26 2.21-2.22.54-.96.81-2.09.81-3.37v-14.74h2.49v14.88c0 1.64-.38 3.11-1.13 4.41a8.187 8.187 0 0 1-3.1 3.08c-1.31.75-2.8 1.13-4.46 1.13ZM572.97 136.88v-23.16h2.49v23.16h-2.49Zm1.65 0v-2.26h12.76v2.26h-12.76ZM586.64 115.98v-2.26h18.82v2.26h-18.82Zm8.18 20.9v-22.52h2.49v22.52h-2.49ZM609.6 136.88v-23.16h2.49v23.16h-2.49ZM617.98 136.88v-23.16h1.78l.71 2.93v20.23h-2.49Zm16.03 0-14.61-19.86.37-3.3 14.61 19.86-.37 3.3Zm0 0-.71-2.79v-20.37h2.49v23.16h-1.78ZM652.15 137.22c-1.64 0-3.17-.31-4.59-.93-1.43-.62-2.66-1.46-3.7-2.54a12.034 12.034 0 0 1-2.46-3.79c-.59-1.45-.89-3.01-.89-4.7s.3-3.24.89-4.68 1.43-2.7 2.49-3.79c1.07-1.09 2.31-1.94 3.74-2.54 1.43-.61 2.98-.91 4.66-.91 1.86 0 3.57.37 5.13 1.11 1.56.74 2.86 1.78 3.89 3.13l-1.75 1.75a7.748 7.748 0 0 0-3.08-2.68c-1.27-.62-2.67-.93-4.19-.93-1.8 0-3.39.41-4.78 1.23a8.659 8.659 0 0 0-3.25 3.38c-.77 1.44-1.16 3.09-1.16 4.95s.39 3.48 1.16 4.91a8.609 8.609 0 0 0 3.2 3.38c1.36.82 2.9 1.23 4.63 1.23s3.22-.35 4.48-1.04c1.26-.7 2.23-1.71 2.93-3.03.7-1.32 1.04-2.92 1.04-4.78l1.41 1.04h-10.1v-2.26h11.28v.37c0 2.6-.47 4.81-1.4 6.61s-2.22 3.17-3.87 4.09c-1.65.92-3.55 1.38-5.71 1.38ZM151.94 26.07c-34.76-34.76-91.11-34.76-125.87 0-34.76 34.76-34.76 91.11 0 125.87s91.11 34.76 125.87 0c34.76-34.76 34.76-91.11 0-125.87ZM73.56 140.51l-9.14-24.13-24.05-9.12 15.59-15.59 18.86 6.26c3.71 1.41 6.65 4.34 8.05 8.05l6.31 18.91-15.61 15.61Zm55.15-25.54L95.5 148.18l-6.33-23.27 24.32-24.32V67.31H80.21L55.89 91.63 32.62 85.3l33.21-33.21c3.68-3.68 8.58-5.71 13.78-5.71H120c3.85 0 7.47 1.5 10.2 4.22s4.22 6.35 4.22 10.2v40.39c0 5.21-2.03 10.1-5.71 13.78Z" class="st0"/><path d="M1744.09 95.97c-3.93 0-7.6-.72-11-2.15s-6.36-3.41-8.88-5.93c-2.52-2.52-4.5-5.44-5.93-8.77-1.44-3.33-2.15-6.93-2.15-10.81s.73-7.55 2.19-10.85 3.5-6.2 6.12-8.69c2.62-2.49 5.66-4.45 9.11-5.86 3.45-1.41 7.17-2.12 11.15-2.12 4.59 0 8.77.84 12.55 2.53 3.78 1.69 6.9 3.99 9.37 6.92l-8.16 8.16c-1.66-2.22-3.67-3.89-6.01-5.03-2.34-1.13-4.95-1.7-7.82-1.7-3.13 0-5.92.69-8.39 2.08-2.47 1.39-4.4 3.33-5.78 5.82-1.39 2.5-2.08 5.4-2.08 8.73s.68 6.17 2.04 8.69c1.36 2.52 3.22 4.5 5.59 5.93 2.37 1.44 5.09 2.15 8.16 2.15s5.71-.59 7.9-1.78c2.19-1.18 3.88-2.91 5.06-5.18 1.18-2.27 1.78-4.99 1.78-8.16l7.94 5.29-23.81-.38V64.81h28.04v1.74c0 6.35-1.15 11.72-3.44 16.1-2.29 4.38-5.47 7.7-9.52 9.94-4.06 2.24-8.73 3.36-14.02 3.36ZM1778.18 95.06V41.69h11.94v53.37h-11.94Zm9.15-43.08V41.7h28.88v10.28h-28.88Zm0 20.86V62.79h26.61v10.05h-26.61Zm0 22.22V84.78h29.33v10.28h-29.33ZM1824.67 95.06V41.69h11.94v53.37h-11.94Zm9.15-21.92v-8.92h11.26c2.32 0 4.13-.59 5.44-1.78 1.31-1.18 1.97-2.78 1.97-4.8s-.64-3.5-1.93-4.76c-1.28-1.26-3.09-1.89-5.4-1.89h-11.34v-9.3h12.7c3.58 0 6.7.67 9.37 2 2.67 1.34 4.75 3.19 6.24 5.56 1.49 2.37 2.23 5.06 2.23 8.09 0 3.23-.76 6.01-2.27 8.35s-3.63 4.17-6.35 5.48c-2.72 1.31-5.92 1.97-9.6 1.97h-12.32Zm19.88 21.92-16.63-22.98 10.96-3.02 19.8 26h-14.14ZM1872.82 95.06V41.69h8.62l21.02 32.73H1898l20.94-32.73h8.62v53.37h-11.87V61.72l2.04.6-13.61 21.24h-7.86l-13.61-21.24 2.04-.6v33.34h-11.87ZM1937.68 95.06V41.69h11.94v53.37h-11.94Zm9.15-43.08V41.7h28.88v10.28h-28.88Zm0 20.86V62.79h26.61v10.05h-26.61Zm0 22.22V84.78h29.33v10.28h-29.33ZM1984.17 95.06V41.69h11.94v53.37h-11.94Zm9.14-21.92v-8.92h11.26c2.32 0 4.13-.59 5.44-1.78 1.31-1.18 1.97-2.78 1.97-4.8s-.64-3.5-1.93-4.76c-1.29-1.26-3.09-1.89-5.4-1.89h-11.34v-9.3h12.7c3.58 0 6.7.67 9.37 2 2.67 1.34 4.75 3.19 6.24 5.56 1.49 2.37 2.23 5.06 2.23 8.09 0 3.23-.75 6.01-2.27 8.35-1.51 2.34-3.63 4.17-6.35 5.48-2.72 1.31-5.92 1.97-9.6 1.97h-12.32Zm19.88 21.92-16.63-22.98 10.96-3.02 19.8 26h-14.14ZM2057.64 95.97c-4.03 0-7.76-.71-11.19-2.12-3.43-1.41-6.43-3.38-8.99-5.9a26.743 26.743 0 0 1-5.97-8.81c-1.41-3.35-2.12-6.97-2.12-10.85s.7-7.56 2.12-10.89c1.41-3.33 3.38-6.24 5.9-8.73 2.52-2.49 5.49-4.43 8.92-5.82 3.43-1.39 7.15-2.08 11.19-2.08s7.67.69 11.07 2.08c3.4 1.39 6.39 3.33 8.96 5.82 2.57 2.49 4.55 5.42 5.93 8.77 1.38 3.35 2.08 6.99 2.08 10.92s-.71 7.5-2.12 10.85a27.08 27.08 0 0 1-5.89 8.77c-2.52 2.49-5.47 4.45-8.84 5.86-3.38 1.41-7.06 2.12-11.04 2.12Zm-.15-10.88c3.18 0 5.95-.71 8.32-2.12 2.37-1.41 4.22-3.38 5.56-5.9 1.33-2.52 2-5.44 2-8.77 0-2.47-.38-4.72-1.13-6.77-.76-2.04-1.84-3.8-3.25-5.29-1.41-1.49-3.1-2.62-5.07-3.4s-4.11-1.17-6.43-1.17c-3.18 0-5.96.69-8.35 2.08-2.4 1.39-4.25 3.33-5.56 5.82-1.31 2.5-1.97 5.4-1.97 8.73 0 2.52.38 4.81 1.13 6.88.76 2.07 1.84 3.84 3.25 5.33 1.41 1.49 3.09 2.62 5.03 3.4 1.94.78 4.1 1.17 6.46 1.17ZM2089.47 52.13V41.7h45.36v10.43h-45.36Zm16.7 42.93V42.37h12.02v52.69h-12.02ZM2137.77 52.13V41.7h45.36v10.43h-45.36Zm16.71 42.93V42.37h12.02v52.69h-12.02ZM1721.39 136.82v-23.16h2.49v23.16h-2.49Zm1.62-9.29v-2.19h6.8c.96 0 1.82-.19 2.58-.57.75-.38 1.34-.93 1.77-1.63.43-.71.64-1.55.64-2.54s-.21-1.83-.64-2.54a4.286 4.286 0 0 0-1.77-1.63c-.75-.38-1.61-.57-2.58-.57h-6.8v-2.19h7c1.39 0 2.64.29 3.74.86 1.1.57 1.97 1.38 2.61 2.42.64 1.04.96 2.26.96 3.65s-.32 2.64-.96 3.67a6.666 6.666 0 0 1-2.61 2.41c-1.1.57-2.35.86-3.74.86h-7ZM1741.53 136.82v-23.16h2.49v23.16h-2.49Zm1.65-20.91v-2.26h13.43v2.26h-13.43Zm0 10.13v-2.19h12.56v2.19h-12.56Zm0 10.78v-2.26h13.63v2.26h-13.63ZM1761.35 136.82v-23.16h2.49v23.16h-2.49Zm1.62-10.34v-2.12h6.7c1.53 0 2.7-.39 3.52-1.16.82-.77 1.23-1.8 1.23-3.08s-.4-2.28-1.21-3.08c-.81-.8-1.98-1.2-3.5-1.2h-6.73v-2.19h6.73c1.5 0 2.79.27 3.87.82 1.08.55 1.9 1.31 2.47 2.27.57.97.86 2.06.86 3.3 0 1.3-.29 2.43-.86 3.38-.57.95-1.4 1.7-2.47 2.24-1.08.54-2.37.81-3.87.81h-6.73Zm12.39 10.34-8.69-10.71 2.42-.77 9.46 11.48h-3.2ZM1782.16 136.82v-23.16h2.49v23.16h-2.49Zm1.65-20.91v-2.26h12.99v2.26h-12.99Zm0 10.47v-2.29h12.42v2.29h-12.42ZM1811.21 137.15c-1.64 0-3.16-.31-4.58-.93-1.41-.62-2.65-1.47-3.7-2.56-1.06-1.09-1.87-2.36-2.46-3.8-.58-1.45-.88-3-.88-4.66s.29-3.24.88-4.68c.58-1.44 1.4-2.69 2.44-3.77s2.27-1.92 3.67-2.53c1.4-.61 2.92-.91 4.56-.91s3.16.3 4.56.91c1.4.61 2.63 1.45 3.69 2.53 1.05 1.08 1.87 2.34 2.46 3.79.58 1.45.88 3.01.88 4.7s-.29 3.21-.88 4.66a11.522 11.522 0 0 1-6.09 6.33c-1.39.62-2.91.93-4.54.93Zm-.07-2.39c1.75 0 3.3-.41 4.65-1.25 1.35-.83 2.41-1.96 3.2-3.4s1.18-3.07 1.18-4.91c0-1.37-.22-2.63-.67-3.79a9.19 9.19 0 0 0-1.88-3.01 8.71 8.71 0 0 0-2.86-1.99c-1.1-.47-2.3-.71-3.6-.71-1.73 0-3.27.41-4.63 1.23-1.36.82-2.42 1.94-3.2 3.37-.77 1.43-1.16 3.06-1.16 4.9 0 1.37.22 2.64.67 3.8a9.334 9.334 0 0 0 1.89 3.05c.81.86 1.76 1.53 2.86 2 1.1.47 2.29.71 3.57.71ZM1827.47 136.82v-23.16h2.49v23.16h-2.49Zm1.62-10.34v-2.12h6.7c1.53 0 2.7-.39 3.52-1.16.82-.77 1.23-1.8 1.23-3.08s-.4-2.28-1.21-3.08c-.81-.8-1.98-1.2-3.5-1.2h-6.73v-2.19h6.73c1.5 0 2.79.27 3.87.82 1.08.55 1.9 1.31 2.47 2.27.57.97.86 2.06.86 3.3 0 1.3-.29 2.43-.86 3.38-.57.95-1.4 1.7-2.47 2.24-1.08.54-2.37.81-3.87.81h-6.73Zm12.38 10.34-8.69-10.71 2.42-.77 9.46 11.48h-3.2ZM1848.27 136.82v-23.16h1.78l10 16.39h-1.28l10-16.39h1.78v23.16h-2.49v-18.85l.57.17-8.35 13.7h-1.75l-8.35-13.7.57-.17v18.85h-2.49ZM1874.73 136.82l9.46-23.16h1.88l9.39 23.16h-2.69l-8.15-20.43h.98l-8.25 20.43h-2.63Zm4.35-6.03v-2.15h12.12v2.15h-12.12ZM1899.64 136.82v-23.16h1.78l.71 2.93v20.23h-2.49Zm16.03 0-14.61-19.86.37-3.3 14.61 19.86-.37 3.3Zm0 0-.71-2.79v-20.37h2.49v23.16h-1.78ZM1933.81 137.15c-1.66 0-3.2-.3-4.61-.91-1.41-.61-2.65-1.46-3.7-2.56a11.88 11.88 0 0 1-2.46-3.82c-.58-1.45-.88-3-.88-4.66s.29-3.21.86-4.66 1.39-2.71 2.44-3.79 2.28-1.92 3.69-2.53c1.4-.61 2.93-.91 4.59-.91 1.77 0 3.36.31 4.76.94 1.4.63 2.63 1.49 3.69 2.59l-1.72 1.72c-.79-.9-1.75-1.6-2.89-2.1-1.14-.5-2.42-.76-3.84-.76-1.3 0-2.5.24-3.59.71a8.62 8.62 0 0 0-2.86 1.99c-.82.85-1.45 1.86-1.88 3.03-.44 1.17-.66 2.42-.66 3.77s.22 2.64.67 3.8 1.08 2.18 1.89 3.05c.81.86 1.76 1.53 2.86 2 1.1.47 2.3.71 3.6.71 1.48 0 2.8-.26 3.96-.77 1.16-.52 2.13-1.22 2.91-2.12l1.72 1.72c-1.03 1.12-2.27 2-3.72 2.63-1.45.63-3.06.94-4.83.94ZM1946.64 136.82v-23.16h2.49v23.16h-2.49Zm1.65-20.91v-2.26h13.43v2.26h-13.43Zm0 10.13v-2.19h12.56v2.19h-12.56Zm0 10.78v-2.26h13.63v2.26h-13.63ZM1988.42 137.22c-1.66 0-3.2-.3-4.61-.91-1.41-.61-2.65-1.46-3.7-2.56a12.05 12.05 0 0 1-2.46-3.82c-.58-1.45-.88-3-.88-4.66s.29-3.21.86-4.66c.57-1.45 1.39-2.71 2.44-3.79s2.28-1.92 3.69-2.53c1.4-.61 2.93-.91 4.6-.91 1.77 0 3.36.31 4.76.94 1.4.63 2.63 1.49 3.69 2.59l-1.72 1.72c-.79-.9-1.75-1.6-2.9-2.1-1.14-.5-2.42-.76-3.84-.76-1.3 0-2.5.24-3.59.71a8.62 8.62 0 0 0-2.86 1.99c-.82.85-1.45 1.86-1.89 3.03-.44 1.17-.66 2.42-.66 3.77s.22 2.64.67 3.8 1.08 2.18 1.89 3.05c.81.86 1.76 1.53 2.86 2 1.1.47 2.3.71 3.6.71 1.48 0 2.8-.26 3.96-.77 1.16-.52 2.13-1.22 2.91-2.12l1.72 1.72c-1.03 1.12-2.27 2-3.72 2.63-1.45.63-3.06.94-4.83.94ZM2011.71 137.22c-1.64 0-3.16-.31-4.58-.93-1.41-.62-2.65-1.47-3.7-2.56a11.959 11.959 0 0 1-2.46-3.8c-.58-1.45-.88-3-.88-4.66s.29-3.24.88-4.68c.58-1.44 1.4-2.69 2.44-3.77s2.27-1.92 3.67-2.53c1.4-.61 2.92-.91 4.56-.91s3.16.3 4.56.91c1.4.61 2.63 1.45 3.69 2.53 1.05 1.08 1.87 2.34 2.46 3.79.58 1.45.88 3.01.88 4.7s-.29 3.21-.88 4.66a11.522 11.522 0 0 1-6.09 6.33c-1.39.62-2.91.93-4.54.93Zm-.07-2.39c1.75 0 3.3-.41 4.65-1.25 1.35-.83 2.41-1.96 3.2-3.4s1.18-3.07 1.18-4.91c0-1.37-.22-2.63-.67-3.79a9.05 9.05 0 0 0-1.89-3.01 8.71 8.71 0 0 0-2.86-1.99c-1.1-.47-2.3-.71-3.6-.71-1.73 0-3.27.41-4.63 1.23-1.36.82-2.42 1.94-3.2 3.37-.77 1.43-1.16 3.06-1.16 4.9 0 1.37.22 2.64.67 3.8a9.334 9.334 0 0 0 1.89 3.05c.81.86 1.76 1.53 2.86 2s2.29.71 3.57.71ZM2027.97 136.88v-23.16h1.78l.71 2.93v20.23h-2.49Zm16.02 0-14.61-19.86.37-3.3 14.61 19.86-.37 3.3Zm0 0-.71-2.79v-20.37h2.49v23.16h-1.78ZM2057.59 137.22c-1.82 0-3.38-.34-4.68-1.01-1.3-.67-2.44-1.64-3.4-2.89l1.72-1.68c.79 1.1 1.7 1.92 2.74 2.46 1.04.54 2.28.81 3.72.81s2.68-.34 3.59-1.01c.91-.67 1.36-1.6 1.36-2.79 0-.92-.21-1.68-.62-2.27-.42-.59-.97-1.08-1.67-1.45-.7-.37-1.45-.7-2.27-.99-.82-.29-1.64-.6-2.47-.93-.83-.33-1.59-.73-2.27-1.21a5.564 5.564 0 0 1-1.67-1.89c-.43-.77-.64-1.76-.64-2.95 0-1.26.3-2.33.91-3.23.61-.9 1.44-1.59 2.51-2.07 1.07-.48 2.27-.72 3.62-.72 1.5 0 2.84.29 4.02.88 1.18.58 2.16 1.37 2.95 2.36l-1.72 1.72c-.72-.87-1.5-1.53-2.36-1.97-.85-.44-1.84-.66-2.96-.66-1.35 0-2.42.31-3.23.94s-1.21 1.5-1.21 2.63c0 .85.21 1.55.62 2.09s.97.99 1.67 1.35c.7.36 1.45.68 2.27.96.82.28 1.64.59 2.47.93.83.34 1.59.76 2.27 1.28.68.52 1.24 1.17 1.67 1.97.43.8.64 1.81.64 3.05 0 2-.68 3.55-2.04 4.66-1.36 1.11-3.2 1.67-5.54 1.67ZM2078.7 137.22c-1.68 0-3.18-.38-4.49-1.13a8.264 8.264 0 0 1-3.11-3.1c-.76-1.31-1.14-2.79-1.14-4.43v-14.85h2.49v14.71c0 1.3.27 2.44.82 3.4.55.97 1.3 1.71 2.24 2.22.94.52 2.01.77 3.2.77s2.25-.26 3.18-.77c.93-.52 1.67-1.26 2.21-2.22.54-.96.81-2.09.81-3.37v-14.74h2.49v14.88c0 1.64-.38 3.11-1.13 4.41a8.187 8.187 0 0 1-3.1 3.08c-1.31.75-2.8 1.13-4.46 1.13ZM2092.97 136.88v-23.16h2.49v23.16h-2.49Zm1.65 0v-2.26h12.76v2.26h-12.76ZM2106.64 115.98v-2.26h18.82v2.26h-18.82Zm8.18 20.9v-22.52h2.49v22.52h-2.49ZM2129.6 136.88v-23.16h2.49v23.16h-2.49ZM2137.98 136.88v-23.16h1.78l.71 2.93v20.23h-2.49Zm16.03 0-14.61-19.86.37-3.3 14.61 19.86-.37 3.3Zm0 0-.71-2.79v-20.37h2.49v23.16h-1.78ZM2172.15 137.22c-1.64 0-3.17-.31-4.59-.93-1.43-.62-2.66-1.46-3.7-2.54a12.034 12.034 0 0 1-2.46-3.79c-.59-1.45-.89-3.01-.89-4.7s.3-3.24.89-4.68c.59-1.44 1.43-2.7 2.49-3.79 1.07-1.09 2.31-1.94 3.74-2.54 1.43-.61 2.98-.91 4.66-.91 1.86 0 3.57.37 5.13 1.11 1.56.74 2.86 1.78 3.89 3.13l-1.75 1.75a7.748 7.748 0 0 0-3.08-2.68c-1.27-.62-2.67-.93-4.19-.93-1.8 0-3.39.41-4.78 1.23a8.659 8.659 0 0 0-3.25 3.38c-.77 1.44-1.16 3.09-1.16 4.95s.39 3.48 1.16 4.91a8.609 8.609 0 0 0 3.2 3.38c1.36.82 2.9 1.23 4.63 1.23s3.22-.35 4.48-1.04c1.26-.7 2.23-1.71 2.93-3.03.7-1.32 1.04-2.92 1.04-4.78l1.41 1.04h-10.1v-2.26h11.28v.37c0 2.6-.47 4.81-1.4 6.61s-2.22 3.17-3.87 4.09c-1.65.92-3.55 1.38-5.71 1.38Z"/><circle cx="1609" cy="89" r="89"/><path d="M1654.42 101.19V60.8c0-3.85-1.5-7.48-4.22-10.2s-6.35-4.22-10.2-4.22h-40.39c-5.21 0-10.1 2.03-13.78 5.71l-33.21 33.21 23.27 6.33 24.32-24.32h33.28v33.28l-24.32 24.32 6.33 23.27 33.21-33.21c3.68-3.68 5.71-8.58 5.71-13.78Z" class="st0"/><path d="m1594.81 97.94-18.86-6.26-15.59 15.59 24.05 9.12 9.14 24.13 15.61-15.61-6.31-18.91a13.864 13.864 0 0 0-8.05-8.05Z" class="st0"/><circle cx="-1188.44" cy="1615.68" r="266.63" class="st1"/><path d="M-1052.38 1652.18V1531.2c0-11.54-4.49-22.39-12.65-30.55s-19.01-12.65-30.55-12.65h-120.99c-15.6 0-30.26 6.08-41.29 17.11l-99.48 99.48 69.72 18.97 72.85-72.85h99.7v99.7l-72.85 72.85 18.97 69.72 99.48-99.48c11.03-11.03 17.1-25.7 17.1-41.29Z" class="st0"/><path d="m-1230.96 1642.44-56.51-18.74-46.69 46.69 72.06 27.31 27.39 72.28 46.76-46.76-18.89-56.66a41.576 41.576 0 0 0-24.12-24.12Z" class="st0"/><circle cx="331.56" cy="1615.68" r="266.63" class="st0"/><path d="M467.62 1652.18V1531.2c0-11.54-4.49-22.39-12.65-30.55S435.96 1488 424.42 1488H303.43c-15.6 0-30.26 6.08-41.29 17.11l-99.48 99.48 69.72 18.97 72.85-72.85h99.7v99.7l-72.85 72.85 18.97 69.72 99.48-99.48c11.03-11.03 17.1-25.7 17.1-41.29Z"/><path d="m289.04 1642.44-56.51-18.74-46.69 46.69 72.06 27.31 27.39 72.28 46.76-46.76-18.89-56.66a41.576 41.576 0 0 0-24.12-24.12Z"/><circle cx="1851.56" cy="1615.68" r="266.63"/><path d="M1987.62 1652.18V1531.2c0-11.54-4.49-22.39-12.65-30.55s-19.01-12.65-30.55-12.65h-120.99c-15.6 0-30.26 6.08-41.29 17.11l-99.48 99.48 69.72 18.97 72.85-72.85h99.7v99.7l-72.85 72.85 18.97 69.72 99.48-99.48c11.03-11.03 17.1-25.7 17.1-41.29Z" class="st0"/><path d="m1809.04 1642.44-56.51-18.74-46.69 46.69 72.06 27.31 27.39 72.28 46.76-46.76-18.89-56.66a41.576 41.576 0 0 0-24.12-24.12Z" class="st0"/></svg>