<svg xmlns="http://www.w3.org/2000/svg" xml:space="preserve" id="Layer_1" x="0" y="0" style="enable-background:new 0 0 1500 1500" version="1.1" viewBox="418.44 661 663.13 178"><style>.st0{fill:#1e3a5f}.st1{fill:#fff}</style><path d="M642.53 756.97c-3.93 0-7.6-.72-11-2.15-3.4-1.44-6.36-3.41-8.88-5.93-2.52-2.52-4.5-5.44-5.93-8.77-1.44-3.33-2.15-6.93-2.15-10.81 0-3.93.73-7.55 2.19-10.85s3.5-6.2 6.12-8.69c2.62-2.49 5.66-4.45 9.11-5.86 3.45-1.41 7.17-2.12 11.15-2.12 4.59 0 8.77.84 12.55 2.53 3.78 1.69 6.9 3.99 9.37 6.92l-8.16 8.16c-1.66-2.22-3.67-3.89-6.01-5.03-2.34-1.13-4.95-1.7-7.82-1.7-3.13 0-5.92.69-8.39 2.08-2.47 1.39-4.4 3.33-5.78 5.82-1.39 2.5-2.08 5.4-2.08 8.73 0 3.28.68 6.17 2.04 8.69 1.36 2.52 3.22 4.5 5.59 5.93 2.37 1.44 5.09 2.15 8.16 2.15s5.71-.59 7.9-1.78c2.19-1.18 3.88-2.91 5.06-5.18 1.18-2.27 1.78-4.99 1.78-8.16l7.94 5.29-23.81-.38v-10.05h28.04v1.74c0 6.35-1.15 11.72-3.44 16.1-2.29 4.38-5.47 7.7-9.52 9.94-4.07 2.26-8.74 3.38-14.03 3.38zM676.62 756.06v-53.37h11.94v53.37h-11.94zm9.14-43.09v-10.28h28.88v10.28h-28.88zm0 20.86v-10.05h26.61v10.05h-26.61zm0 22.23v-10.28h29.33v10.28h-29.33zM723.11 756.06v-53.37h11.94v53.37h-11.94zm9.14-21.92v-8.92h11.26c2.32 0 4.13-.59 5.44-1.78 1.31-1.18 1.97-2.78 1.97-4.8 0-1.92-.64-3.5-1.93-4.76-1.28-1.26-3.09-1.89-5.4-1.89h-11.34v-9.3h12.7c3.58 0 6.7.67 9.37 2 2.67 1.34 4.75 3.19 6.24 5.56 1.49 2.37 2.23 5.06 2.23 8.09 0 3.23-.76 6.01-2.27 8.35s-3.63 4.17-6.35 5.48c-2.72 1.31-5.92 1.97-9.6 1.97h-12.32zm19.88 21.92-16.63-22.98 10.96-3.02 19.8 26h-14.13zM771.26 756.06v-53.37h8.62l21.02 32.73h-4.46l20.94-32.73H826v53.37h-11.87v-33.34l2.04.6-13.61 21.24h-7.86l-13.61-21.24 2.04-.6v33.34h-11.87zM836.12 756.06v-53.37h11.94v53.37h-11.94zm9.14-43.09v-10.28h28.88v10.28h-28.88zm0 20.86v-10.05h26.61v10.05h-26.61zm0 22.23v-10.28h29.33v10.28h-29.33zM882.6 756.06v-53.37h11.94v53.37H882.6zm9.15-21.92v-8.92h11.26c2.32 0 4.13-.59 5.44-1.78 1.31-1.18 1.97-2.78 1.97-4.8 0-1.92-.64-3.5-1.93-4.76-1.29-1.26-3.09-1.89-5.4-1.89h-11.34v-9.3h12.7c3.58 0 6.7.67 9.37 2 2.67 1.34 4.75 3.19 6.24 5.56 1.49 2.37 2.23 5.06 2.23 8.09 0 3.23-.75 6.01-2.27 8.35-1.51 2.34-3.63 4.17-6.35 5.48-2.72 1.31-5.92 1.97-9.6 1.97h-12.32zm19.88 21.92L895 733.08l10.96-3.02 19.8 26h-14.13zM956.08 756.97c-4.03 0-7.76-.71-11.19-2.12-3.43-1.41-6.43-3.38-8.99-5.9a26.743 26.743 0 0 1-5.97-8.81c-1.41-3.35-2.12-6.97-2.12-10.85 0-3.93.7-7.56 2.12-10.89 1.41-3.33 3.38-6.24 5.9-8.73 2.52-2.49 5.49-4.43 8.92-5.82 3.43-1.39 7.15-2.08 11.19-2.08 3.98 0 7.67.69 11.07 2.08 3.4 1.39 6.39 3.33 8.96 5.82 2.57 2.49 4.55 5.42 5.93 8.77 1.39 3.35 2.08 6.99 2.08 10.92 0 3.88-.71 7.5-2.12 10.85a27.08 27.08 0 0 1-5.89 8.77c-2.52 2.49-5.47 4.45-8.84 5.86-3.39 1.42-7.07 2.13-11.05 2.13zm-.15-10.89c3.18 0 5.95-.71 8.32-2.12 2.37-1.41 4.22-3.38 5.56-5.9 1.33-2.52 2-5.44 2-8.77 0-2.47-.38-4.72-1.13-6.77-.76-2.04-1.84-3.8-3.25-5.29-1.41-1.49-3.1-2.62-5.07-3.4-1.97-.78-4.11-1.17-6.43-1.17-3.18 0-5.96.69-8.35 2.08-2.4 1.39-4.25 3.33-5.56 5.82-1.31 2.5-1.97 5.4-1.97 8.73 0 2.52.38 4.81 1.13 6.88.76 2.07 1.84 3.84 3.25 5.33 1.41 1.49 3.09 2.62 5.03 3.4 1.94.79 4.1 1.18 6.47 1.18zM987.9 713.12v-10.43h45.36v10.43H987.9zm16.71 42.94v-52.69h12.02v52.69h-12.02zM1036.21 713.12v-10.43h45.36v10.43h-45.36zm16.7 42.94v-52.69h12.02v52.69h-12.02zM619.83 797.81v-23.16h2.49v23.16h-2.49zm1.62-9.29v-2.19h6.8c.96 0 1.82-.19 2.58-.57.75-.38 1.34-.93 1.77-1.63.43-.71.64-1.55.64-2.54s-.21-1.83-.64-2.54a4.286 4.286 0 0 0-1.77-1.63c-.75-.38-1.61-.57-2.58-.57h-6.8v-2.19h7c1.39 0 2.64.29 3.74.86 1.1.57 1.97 1.38 2.61 2.42.64 1.04.96 2.26.96 3.65 0 1.41-.32 2.64-.96 3.67a6.666 6.666 0 0 1-2.61 2.41c-1.1.57-2.35.86-3.74.86h-7zM639.96 797.81v-23.16h2.49v23.16h-2.49zm1.65-20.9v-2.26h13.43v2.26h-13.43zm0 10.13v-2.19h12.56v2.19h-12.56zm0 10.77v-2.26h13.63v2.26h-13.63zM659.79 797.81v-23.16h2.49v23.16h-2.49zm1.62-10.33v-2.12h6.7c1.53 0 2.7-.39 3.52-1.16.82-.77 1.23-1.8 1.23-3.08 0-1.26-.4-2.28-1.21-3.08-.81-.8-1.98-1.2-3.5-1.2h-6.73v-2.19h6.73c1.5 0 2.79.27 3.87.82 1.08.55 1.9 1.31 2.47 2.27.57.97.86 2.06.86 3.3 0 1.3-.29 2.43-.86 3.38-.57.95-1.4 1.7-2.47 2.24-1.08.54-2.37.81-3.87.81h-6.74zm12.38 10.33-8.69-10.71 2.42-.77 9.46 11.48h-3.19zM680.6 797.81v-23.16h2.49v23.16h-2.49zm1.65-20.9v-2.26h12.99v2.26h-12.99zm0 10.47v-2.29h12.42v2.29h-12.42zM709.65 798.15c-1.64 0-3.16-.31-4.58-.93-1.41-.62-2.65-1.47-3.7-2.56-1.06-1.09-1.87-2.36-2.46-3.8-.58-1.45-.88-3-.88-4.66 0-1.68.29-3.24.88-4.68.58-1.44 1.4-2.69 2.44-3.77s2.27-1.92 3.67-2.53c1.4-.61 2.92-.91 4.56-.91 1.64 0 3.16.3 4.56.91 1.4.61 2.63 1.45 3.69 2.53 1.05 1.08 1.87 2.34 2.46 3.79.58 1.45.88 3.01.88 4.7 0 1.66-.29 3.21-.88 4.66a11.522 11.522 0 0 1-6.09 6.33c-1.4.61-2.91.92-4.55.92zm-.07-2.39c1.75 0 3.3-.41 4.65-1.25 1.35-.83 2.41-1.96 3.2-3.4s1.18-3.07 1.18-4.91c0-1.37-.22-2.63-.67-3.79a9.19 9.19 0 0 0-1.88-3.01 8.71 8.71 0 0 0-2.86-1.99c-1.1-.47-2.3-.71-3.6-.71-1.73 0-3.27.41-4.63 1.23-1.36.82-2.42 1.94-3.2 3.37-.77 1.43-1.16 3.06-1.16 4.9 0 1.37.22 2.64.67 3.8a9.334 9.334 0 0 0 1.89 3.05c.81.86 1.76 1.53 2.86 2 1.08.47 2.27.71 3.55.71zM725.91 797.81v-23.16h2.49v23.16h-2.49zm1.61-10.33v-2.12h6.7c1.53 0 2.7-.39 3.52-1.16.82-.77 1.23-1.8 1.23-3.08 0-1.26-.4-2.28-1.21-3.08-.81-.8-1.98-1.2-3.5-1.2h-6.73v-2.19h6.73c1.5 0 2.79.27 3.87.82 1.08.55 1.9 1.31 2.47 2.27.57.97.86 2.06.86 3.3 0 1.3-.29 2.43-.86 3.38-.57.95-1.4 1.7-2.47 2.24-1.08.54-2.37.81-3.87.81h-6.74zm12.39 10.33-8.69-10.71 2.42-.77 9.46 11.48h-3.19zM746.71 797.81v-23.16h1.78l10 16.39h-1.28l10-16.39H769v23.16h-2.49v-18.85l.57.17-8.35 13.7h-1.75l-8.35-13.7.57-.17v18.85h-2.49zM773.17 797.81l9.46-23.16h1.88l9.39 23.16h-2.69l-8.15-20.43h.98l-8.25 20.43h-2.62zm4.34-6.02v-2.15h12.12v2.15h-12.12zM798.08 797.81v-23.16h1.78l.71 2.93v20.23h-2.49zm16.03 0-14.61-19.86.37-3.3 14.61 19.86-.37 3.3zm0 0-.71-2.79v-20.37h2.49v23.16h-1.78zM832.25 798.15c-1.66 0-3.2-.3-4.61-.91-1.41-.61-2.65-1.46-3.7-2.56a11.88 11.88 0 0 1-2.46-3.82c-.58-1.45-.88-3-.88-4.66 0-1.66.29-3.21.86-4.66.57-1.45 1.39-2.71 2.44-3.79s2.28-1.92 3.69-2.53c1.4-.61 2.93-.91 4.59-.91 1.77 0 3.36.31 4.76.94 1.4.63 2.63 1.49 3.69 2.59l-1.72 1.72c-.79-.9-1.75-1.6-2.89-2.1-1.14-.5-2.42-.76-3.84-.76-1.3 0-2.5.24-3.59.71a8.62 8.62 0 0 0-2.86 1.99c-.82.85-1.45 1.86-1.88 3.03-.44 1.17-.66 2.42-.66 3.77 0 1.37.22 2.64.67 3.8s1.08 2.18 1.89 3.05c.81.86 1.76 1.53 2.86 2 1.1.47 2.3.71 3.6.71 1.48 0 2.8-.26 3.96-.77 1.16-.52 2.13-1.22 2.91-2.12l1.72 1.72c-1.03 1.12-2.27 2-3.72 2.63-1.45.61-3.06.93-4.83.93zM845.08 797.81v-23.16h2.49v23.16h-2.49zm1.65-20.9v-2.26h13.43v2.26h-13.43zm0 10.13v-2.19h12.56v2.19h-12.56zm0 10.77v-2.26h13.63v2.26h-13.63zM886.85 798.22c-1.66 0-3.2-.3-4.61-.91-1.41-.61-2.65-1.46-3.7-2.56a12.05 12.05 0 0 1-2.46-3.82c-.58-1.45-.88-3-.88-4.66 0-1.66.29-3.21.86-4.66.57-1.45 1.39-2.71 2.44-3.79s2.28-1.92 3.69-2.53c1.4-.61 2.93-.91 4.6-.91 1.77 0 3.36.31 4.76.94 1.4.63 2.63 1.49 3.69 2.59l-1.72 1.72c-.79-.9-1.75-1.6-2.9-2.1-1.14-.5-2.42-.76-3.84-.76-1.3 0-2.5.24-3.59.71a8.62 8.62 0 0 0-2.86 1.99c-.82.85-1.45 1.86-1.89 3.03-.44 1.17-.66 2.42-.66 3.77 0 1.37.22 2.64.67 3.8s1.08 2.18 1.89 3.05c.81.86 1.76 1.53 2.86 2 1.1.47 2.3.71 3.6.71 1.48 0 2.8-.26 3.96-.77 1.16-.52 2.13-1.22 2.91-2.12l1.72 1.72c-1.03 1.12-2.27 2-3.72 2.63-1.43.61-3.05.93-4.82.93zM910.15 798.22c-1.64 0-3.16-.31-4.58-.93-1.41-.62-2.65-1.47-3.7-2.56a11.959 11.959 0 0 1-2.46-3.8c-.58-1.45-.88-3-.88-4.66 0-1.68.29-3.24.88-4.68.58-1.44 1.4-2.69 2.44-3.77s2.27-1.92 3.67-2.53c1.4-.61 2.92-.91 4.56-.91 1.64 0 3.16.3 4.56.91 1.4.61 2.63 1.45 3.69 2.53 1.05 1.08 1.87 2.34 2.46 3.79.58 1.45.88 3.01.88 4.7 0 1.66-.29 3.21-.88 4.66a11.522 11.522 0 0 1-6.09 6.33c-1.4.61-2.92.92-4.55.92zm-.07-2.39c1.75 0 3.3-.41 4.65-1.25 1.35-.83 2.41-1.96 3.2-3.4s1.18-3.07 1.18-4.91c0-1.37-.22-2.63-.67-3.79a9.05 9.05 0 0 0-1.89-3.01 8.71 8.71 0 0 0-2.86-1.99c-1.1-.47-2.3-.71-3.6-.71-1.73 0-3.27.41-4.63 1.23-1.36.82-2.42 1.94-3.2 3.37-.77 1.43-1.16 3.06-1.16 4.9 0 1.37.22 2.64.67 3.8a9.334 9.334 0 0 0 1.89 3.05c.81.86 1.76 1.53 2.86 2s2.28.71 3.56.71zM926.41 797.88v-23.16h1.78l.71 2.93v20.23h-2.49zm16.02 0-14.61-19.86.37-3.3 14.61 19.86-.37 3.3zm0 0-.71-2.79v-20.37h2.49v23.16h-1.78zM956.03 798.22c-1.82 0-3.38-.34-4.68-1.01-1.3-.67-2.44-1.64-3.4-2.89l1.72-1.68c.79 1.1 1.7 1.92 2.74 2.46 1.04.54 2.28.81 3.72.81 1.48 0 2.68-.34 3.59-1.01.91-.67 1.36-1.6 1.36-2.79 0-.92-.21-1.68-.62-2.27-.42-.59-.97-1.08-1.67-1.45-.7-.37-1.45-.7-2.27-.99-.82-.29-1.64-.6-2.47-.93-.83-.33-1.59-.73-2.27-1.21a5.564 5.564 0 0 1-1.67-1.89c-.43-.77-.64-1.76-.64-2.95 0-1.26.3-2.33.91-3.23.61-.9 1.44-1.59 2.51-2.07 1.07-.48 2.27-.72 3.62-.72 1.5 0 2.84.29 4.02.88 1.18.58 2.16 1.37 2.95 2.36l-1.72 1.72c-.72-.87-1.5-1.53-2.36-1.97-.85-.44-1.84-.66-2.96-.66-1.35 0-2.42.31-3.23.94-.81.63-1.21 1.5-1.21 2.63 0 .85.21 1.55.62 2.09.42.54.97.99 1.67 1.35.7.36 1.45.68 2.27.96.82.28 1.64.59 2.47.93.83.34 1.59.76 2.27 1.28.68.52 1.24 1.17 1.67 1.97.43.8.64 1.81.64 3.05 0 2-.68 3.55-2.04 4.66-1.36 1.07-3.21 1.63-5.54 1.63zM977.14 798.22c-1.68 0-3.18-.38-4.49-1.13a8.264 8.264 0 0 1-3.11-3.1c-.76-1.31-1.14-2.79-1.14-4.43v-14.85h2.49v14.71c0 1.3.27 2.44.82 3.4.55.97 1.3 1.71 2.24 2.22.94.52 2.01.77 3.2.77 1.19 0 2.25-.26 3.18-.77.93-.52 1.67-1.26 2.21-2.22.54-.96.81-2.09.81-3.37v-14.74h2.49v14.88c0 1.64-.38 3.11-1.13 4.41a8.187 8.187 0 0 1-3.1 3.08c-1.33.76-2.81 1.14-4.47 1.14zM991.41 797.88v-23.16h2.49v23.16h-2.49zm1.65 0v-2.26h12.76v2.26h-12.76zM1005.08 776.97v-2.26h18.82v2.26h-18.82zm8.18 20.91v-22.52h2.49v22.52h-2.49zM1028.04 797.88v-23.16h2.49v23.16h-2.49zM1036.42 797.88v-23.16h1.78l.71 2.93v20.23h-2.49zm16.02 0-14.61-19.86.37-3.3 14.61 19.86-.37 3.3zm0 0-.71-2.79v-20.37h2.49v23.16h-1.78zM1070.59 798.22c-1.64 0-3.17-.31-4.59-.93-1.43-.62-2.66-1.46-3.7-2.54a12.034 12.034 0 0 1-2.46-3.79c-.59-1.45-.89-3.01-.89-4.7s.3-3.24.89-4.68c.59-1.44 1.43-2.7 2.49-3.79 1.07-1.09 2.31-1.94 3.74-2.54 1.43-.61 2.98-.91 4.66-.91 1.86 0 3.57.37 5.13 1.11 1.56.74 2.86 1.78 3.89 3.13l-1.75 1.75a7.748 7.748 0 0 0-3.08-2.68c-1.27-.62-2.67-.93-4.19-.93-1.8 0-3.39.41-4.78 1.23a8.659 8.659 0 0 0-3.25 3.38c-.77 1.44-1.16 3.09-1.16 4.95 0 1.84.39 3.48 1.16 4.91a8.609 8.609 0 0 0 3.2 3.38c1.36.82 2.9 1.23 4.63 1.23s3.22-.35 4.48-1.04c1.26-.7 2.23-1.71 2.93-3.03.7-1.32 1.04-2.92 1.04-4.78l1.41 1.04h-10.1v-2.26h11.28v.37c0 2.6-.47 4.81-1.4 6.61-.93 1.81-2.22 3.17-3.87 4.09-1.66.96-3.56 1.42-5.71 1.42z" class="st0"></path><circle cx="507.44" cy="750" r="89" class="st0"></circle><path d="M552.86 762.18v-40.39c0-3.85-1.5-7.48-4.22-10.2a14.342 14.342 0 0 0-10.2-4.22h-40.39c-5.21 0-10.1 2.03-13.78 5.71l-33.21 33.21 23.27 6.33 24.32-24.32h33.28v33.28l-24.32 24.32 6.33 23.27 33.21-33.21c3.68-3.68 5.71-8.57 5.71-13.78z" class="st1"></path><path d="m493.25 758.93-18.86-6.26-15.59 15.59 24.05 9.12 9.14 24.13 15.61-15.61-6.31-18.91c-1.4-3.72-4.33-6.65-8.04-8.06z" class="st1"></path></svg>
