<?xml version="1.0" encoding="UTF-8"?>
<svg id="Layer_1" xmlns="http://www.w3.org/2000/svg" viewBox="0 0 533.25 533.25">
  <defs>
    <style>
      .cls-1 {
        fill: #1e3a5f;
      }
    </style>
  </defs>
  <path class="cls-1" d="M455.16,78.09c-104.12-104.12-272.94-104.12-377.07,0-104.12,104.13-104.12,272.95,0,377.07,104.12,104.12,272.94,104.12,377.07,0,104.12-104.12,104.12-272.94,0-377.07ZM220.36,420.92l-27.39-72.28-72.06-27.31,46.69-46.69,56.51,18.74c11.12,4.21,19.91,13.01,24.12,24.12l18.89,56.66-46.76,46.76ZM385.58,344.41l-99.48,99.48-18.97-69.72,72.85-72.85v-99.7h-99.7s-72.85,72.85-72.85,72.85l-69.72-18.97,99.48-99.48c11.03-11.03,25.7-17.11,41.29-17.11h120.99c11.54,0,22.39,4.49,30.55,12.65s12.66,19.01,12.65,30.55v120.98c0,15.6-6.07,30.26-17.1,41.29Z"/>
</svg>